<?xml version="1.0" standalone="no"?>
<!DOCTYPE svg PUBLIC "-//W3C//DTD SVG 20010904//EN"
 "http://www.w3.org/TR/2001/REC-SVG-20010904/DTD/svg10.dtd">
<svg version="1.0" xmlns="http://www.w3.org/2000/svg"
 width="884.000000pt" height="301.000000pt" viewBox="0 0 884.000000 301.000000"
 preserveAspectRatio="xMidYMid meet">

<g transform="translate(0.000000,301.000000) scale(0.100000,-0.100000)"
fill="#000000" stroke="none">
<path d="M1280 1710 l0 -531 25 -75 c14 -41 25 -77 25 -79 0 -3 -47 -5 -105
-5 -122 0 -154 11 -179 64 -14 29 -16 82 -16 398 0 201 -3 412 -7 469 l-6 104
-105 85 c-58 47 -109 87 -114 88 -5 2 -8 -253 -6 -595 l3 -598 26 -56 c44 -92
126 -159 234 -188 25 -6 183 -11 415 -11 347 -1 379 0 430 18 95 33 142 62
205 126 76 77 109 139 131 248 16 76 17 96 6 160 -42 246 -240 418 -483 418
-65 0 -189 -30 -216 -52 -10 -8 -13 -2 -14 23 -1 19 -4 106 -8 193 l-6 160
-100 73 c-55 41 -108 78 -117 84 -17 9 -18 -18 -18 -521z m587 -231 c74 -36
133 -131 133 -215 0 -83 -55 -171 -130 -209 -185 -94 -395 77 -337 275 32 110
112 170 226 170 45 0 78 -6 108 -21z"/>
<path d="M4438 1914 c-84 -45 -7 -174 79 -132 42 20 60 58 44 95 -20 49 -72
65 -123 37z"/>
<path d="M2670 1525 l0 -375 240 0 240 0 0 60 0 60 -162 2 -163 3 -3 313 -2
312 -75 0 -75 0 0 -375z"/>
<path d="M5310 1525 l0 -377 193 4 c190 3 192 3 252 33 78 39 109 90 109 181
0 50 -5 70 -26 102 -14 21 -40 44 -56 51 l-30 13 43 41 c35 34 44 51 50 90 14
95 -30 174 -120 213 -32 14 -78 19 -227 22 l-188 4 0 -377z m354 224 c22 -17
26 -28 26 -69 0 -41 -4 -52 -26 -69 -23 -18 -41 -21 -115 -21 l-89 0 0 90 0
90 89 0 c74 0 92 -3 115 -21z m-22 -279 c47 -13 68 -43 68 -96 0 -77 -67 -112
-200 -102 l-45 3 -3 89 c-2 49 -1 95 2 103 7 16 123 18 178 3z"/>
<path d="M4710 1775 l0 -65 -40 0 -40 0 0 -55 0 -55 40 0 40 0 0 -172 c0 -145
3 -179 18 -207 32 -65 95 -90 186 -77 l46 7 0 55 c0 54 0 54 -31 54 -68 0 -69
3 -69 180 l0 160 45 0 45 0 0 55 0 55 -45 0 -45 0 0 65 0 65 -75 0 -75 0 0
-65z"/>
<path d="M6530 1775 l0 -65 -40 0 -40 0 0 -55 0 -55 40 0 40 0 0 -172 c0 -145
3 -179 18 -207 32 -65 95 -90 186 -77 l46 7 0 55 c0 54 0 54 -31 54 -68 0 -69
3 -69 180 l0 160 45 0 45 0 0 55 0 55 -45 0 -45 0 0 65 0 65 -75 0 -75 0 0
-65z"/>
<path d="M3382 1701 c-63 -22 -113 -67 -144 -130 -30 -63 -33 -227 -4 -281 65
-124 202 -177 344 -135 47 14 123 66 122 84 -1 3 -16 24 -35 45 l-35 39 -23
-21 c-81 -76 -211 -46 -242 56 l-6 22 175 0 c101 0 177 4 181 10 11 17 -14
169 -34 209 -27 52 -71 87 -133 106 -66 19 -101 19 -166 -4z m132 -115 c23 -9
37 -24 45 -46 20 -60 21 -60 -95 -60 -105 0 -105 0 -99 23 14 48 65 96 103 97
7 0 28 -6 46 -14z"/>
<path d="M3936 1706 c-61 -23 -88 -48 -121 -111 -28 -54 -30 -66 -30 -165 0
-99 2 -111 30 -165 41 -79 94 -117 172 -123 48 -3 66 1 106 22 45 24 47 25 47
5 0 -34 -27 -87 -54 -104 -38 -25 -131 -17 -176 15 l-33 23 -28 -34 c-41 -48
-34 -68 32 -102 113 -58 250 -44 335 35 69 64 74 91 74 425 l0 283 -70 0 c-68
0 -70 -1 -70 -25 l0 -25 -37 24 c-49 32 -125 41 -177 22z m182 -139 c20 -19
22 -29 22 -133 0 -62 -3 -120 -6 -129 -8 -21 -56 -45 -89 -45 -74 0 -115 59
-115 164 0 123 48 183 135 169 17 -3 40 -14 53 -26z"/>
<path d="M7012 1702 c-111 -40 -172 -138 -172 -276 0 -126 45 -208 143 -257
93 -48 236 -32 312 35 l40 34 -39 41 c-40 41 -40 41 -60 22 -47 -44 -130 -54
-183 -21 -30 18 -63 65 -63 90 0 6 59 10 175 10 l175 0 0 63 c0 164 -76 257
-220 272 -40 4 -69 0 -108 -13z m155 -135 c11 -12 24 -37 28 -54 l7 -33 -106
0 c-70 0 -106 4 -106 11 0 6 8 27 17 46 30 63 113 79 160 30z"/>
<path d="M7559 1707 c-90 -25 -139 -83 -139 -164 0 -41 5 -58 26 -83 32 -37
84 -65 150 -80 117 -27 159 -66 119 -110 -28 -31 -118 -28 -150 5 -14 13 -25
31 -25 40 0 12 -14 15 -70 15 -65 0 -70 -2 -70 -21 0 -35 41 -97 81 -124 111
-73 304 -50 366 44 31 46 31 116 0 161 -30 46 -68 66 -168 91 -92 23 -119 40
-119 75 0 30 36 54 82 54 40 0 78 -27 78 -55 0 -12 15 -15 75 -15 69 0 75 2
75 20 0 28 -23 70 -52 97 -54 51 -174 74 -259 50z"/>
<path d="M4410 1430 l0 -280 75 0 75 0 0 280 0 280 -75 0 -75 0 0 -280z"/>
<path d="M5920 1703 c0 -3 43 -130 96 -281 89 -254 95 -276 83 -305 -17 -45
-45 -67 -85 -67 l-34 0 0 -60 0 -60 56 0 c70 0 119 23 149 69 18 27 255 684
255 707 0 2 -35 4 -78 4 l-79 0 -48 -165 c-27 -91 -51 -165 -55 -165 -4 0 -29
74 -55 165 l-48 165 -79 0 c-43 0 -78 -3 -78 -7z"/>
</g>
</svg>
