<svg id="svg" version="1.1" xmlns="http://www.w3.org/2000/svg" xmlns:xlink="http://www.w3.org/1999/xlink" width="400" height="136.19909502262442" viewBox="0, 0, 400,136.19909502262442"><g id="svgg"><path id="path0" d="M35.096 34.312 C 35.033 34.416,35.019 34.562,35.065 34.637 C 35.112 34.713,34.985 34.769,34.783 34.762 L 34.417 34.750 34.374 60.645 C 34.333 85.976,34.339 86.537,34.648 86.457 C 35.076 86.345,35.279 87.412,34.900 87.790 C 34.565 88.125,34.657 89.063,35.031 89.134 C 35.246 89.175,35.327 89.038,35.378 88.552 L 35.444 87.917 35.472 88.627 C 35.487 89.018,35.413 89.477,35.307 89.647 C 35.062 90.039,35.236 90.506,35.671 90.620 C 35.928 90.687,35.964 90.759,35.824 90.928 C 35.524 91.290,35.703 91.910,36.125 91.970 C 36.396 92.008,36.500 92.135,36.500 92.428 C 36.500 92.651,36.575 92.833,36.667 92.833 C 36.758 92.833,36.833 92.946,36.833 93.083 C 36.833 93.221,36.961 93.333,37.117 93.333 C 37.337 93.333,37.356 93.378,37.200 93.533 C 36.740 93.993,37.733 95.667,38.465 95.667 C 38.576 95.667,38.667 95.779,38.667 95.917 C 38.667 96.054,38.779 96.167,38.917 96.167 C 39.054 96.167,39.167 96.242,39.167 96.333 C 39.167 96.425,39.294 96.500,39.450 96.500 C 39.670 96.500,39.689 96.544,39.533 96.700 C 39.423 96.810,39.333 96.998,39.333 97.117 C 39.333 97.394,39.779 97.400,39.890 97.125 C 39.940 97.001,39.979 97.034,39.987 97.208 C 39.994 97.369,40.075 97.500,40.167 97.500 C 40.384 97.500,40.913 98.032,41.049 98.388 C 41.108 98.541,41.299 98.667,41.474 98.667 C 41.649 98.667,41.878 98.770,41.983 98.897 C 42.088 99.023,42.407 99.173,42.691 99.230 C 43.125 99.317,43.175 99.373,43.002 99.581 C 42.834 99.783,42.849 99.850,43.081 99.939 C 43.238 99.999,43.419 99.965,43.482 99.862 C 43.558 99.739,43.747 99.815,44.041 100.088 C 44.527 100.539,44.830 100.616,44.840 100.292 C 44.844 100.177,44.959 100.290,45.095 100.542 C 45.359 101.027,45.575 101.117,45.759 100.819 C 45.827 100.708,45.948 100.789,46.069 101.027 C 46.270 101.424,46.408 101.444,47.472 101.234 C 47.777 101.174,48.190 101.199,48.389 101.290 C 48.587 101.381,48.969 101.559,49.236 101.686 C 49.617 101.867,49.736 101.872,49.791 101.708 C 49.884 101.433,50.190 101.445,50.773 101.749 C 51.394 102.073,80.094 102.133,80.202 101.811 C 80.248 101.674,80.361 101.681,80.610 101.837 C 80.973 102.063,81.500 101.965,81.500 101.672 C 81.500 101.564,80.801 101.500,79.625 101.499 C 78.288 101.498,77.613 101.427,77.273 101.249 C 77.010 101.112,76.567 101.000,76.287 101.000 C 76.008 101.000,75.360 100.881,74.848 100.734 C 74.336 100.588,73.504 100.353,73.000 100.211 C 71.832 99.883,71.581 99.790,70.667 99.354 C 69.088 98.600,67.326 97.562,66.742 97.042 C 66.408 96.744,66.079 96.500,66.011 96.500 C 65.812 96.500,62.953 93.653,62.329 92.833 C 62.015 92.421,61.710 92.046,61.651 92.000 C 61.591 91.954,61.327 91.514,61.063 91.022 C 60.528 90.025,59.810 89.333,59.311 89.333 C 59.129 89.333,59.027 89.258,59.083 89.167 C 59.241 88.911,52.291 88.943,52.034 89.199 C 51.880 89.353,51.730 89.297,51.367 88.949 C 51.077 88.671,50.712 88.499,50.408 88.498 C 50.045 88.497,49.764 88.323,49.333 87.833 C 49.012 87.468,48.610 87.169,48.438 87.168 C 48.176 87.167,48.160 87.126,48.339 86.910 C 48.643 86.544,48.290 86.190,47.924 86.494 C 47.706 86.675,47.667 86.654,47.667 86.354 C 47.667 86.159,47.742 86.000,47.833 86.000 C 48.020 86.000,48.076 76.131,47.890 75.946 C 47.830 75.886,47.680 75.920,47.557 76.022 C 47.264 76.265,47.234 74.000,47.526 73.707 C 47.672 73.561,47.670 73.455,47.516 73.270 C 47.260 72.960,47.247 62.686,47.503 62.431 C 47.732 62.202,47.708 61.274,47.467 61.033 C 47.311 60.878,47.311 60.789,47.467 60.633 C 47.617 60.483,47.667 58.337,47.667 51.998 L 47.667 43.562 47.167 43.083 C 46.892 42.820,46.667 42.468,46.667 42.302 C 46.667 41.958,46.330 41.903,46.033 42.200 C 45.878 42.356,45.833 42.332,45.833 42.092 C 45.833 41.655,44.822 40.727,44.195 40.590 C 43.904 40.526,43.667 40.382,43.667 40.271 C 43.667 39.707,42.120 38.604,41.944 39.042 C 41.888 39.180,41.855 39.164,41.846 38.992 C 41.821 38.488,40.547 37.420,40.257 37.661 C 40.041 37.840,39.999 37.824,39.994 37.562 C 39.988 37.203,39.450 36.500,39.182 36.500 C 39.082 36.500,39.000 36.354,39.000 36.177 C 39.000 35.770,38.697 35.570,38.452 35.815 C 38.127 36.139,37.863 36.015,37.746 35.483 C 37.533 34.513,35.522 33.624,35.096 34.312 M102.000 78.917 C 102.000 79.165,102.072 79.309,102.167 79.250 C 102.258 79.193,102.333 79.043,102.333 78.917 C 102.333 78.790,102.258 78.640,102.167 78.583 C 102.072 78.525,102.000 78.668,102.000 78.917 M90.752 80.704 C 90.589 81.458,90.393 82.190,90.317 82.329 C 90.097 82.732,89.500 84.138,89.500 84.252 C 89.500 85.085,85.890 88.470,84.333 89.096 C 84.196 89.152,83.933 89.263,83.750 89.345 C 82.871 89.734,81.779 90.007,81.031 90.024 L 80.206 90.043 80.103 90.795 C 79.967 91.788,79.970 99.642,80.107 100.326 C 80.197 100.777,80.268 100.842,80.565 100.747 C 80.758 100.685,81.479 100.566,82.167 100.482 C 82.854 100.398,83.792 100.223,84.250 100.092 C 84.708 99.961,85.421 99.765,85.833 99.657 C 87.045 99.341,88.770 98.687,89.333 98.331 C 89.471 98.244,89.883 98.019,90.250 97.831 C 91.485 97.198,92.074 96.800,92.747 96.144 C 93.115 95.785,93.642 95.331,93.917 95.135 C 94.317 94.851,95.658 93.431,96.923 91.952 C 97.819 90.904,99.093 88.543,100.136 86.000 C 100.410 85.330,100.987 82.345,101.255 80.208 L 101.365 79.333 96.206 79.333 L 91.048 79.333 90.752 80.704 M47.667 83.533 C 47.667 83.803,47.617 83.851,47.481 83.715 C 47.379 83.613,47.346 83.448,47.408 83.348 C 47.580 83.069,47.667 83.131,47.667 83.533 M98.000 92.500 C 98.000 92.811,98.044 92.856,98.200 92.700 C 98.356 92.544,98.356 92.456,98.200 92.300 C 98.044 92.144,98.000 92.189,98.000 92.500 " stroke="none" fill="#d50604" fill-rule="evenodd"></path><path id="path1" d="M57.277 34.521 C 57.219 34.739,57.170 44.558,57.169 56.342 C 57.167 71.680,57.115 77.819,56.984 77.950 C 56.871 78.062,56.836 78.476,56.894 79.025 C 56.945 79.515,57.059 80.652,57.147 81.551 C 57.236 82.450,57.393 83.287,57.496 83.411 C 57.631 83.574,57.632 83.668,57.500 83.750 C 57.387 83.820,57.375 83.937,57.469 84.057 C 57.552 84.163,57.670 84.456,57.730 84.708 C 57.790 84.960,57.913 85.167,58.003 85.167 C 58.093 85.167,58.167 85.432,58.167 85.755 C 58.167 86.125,58.260 86.380,58.417 86.440 C 58.698 86.548,58.754 87.093,58.500 87.250 C 58.249 87.405,58.300 87.833,58.569 87.833 C 58.699 87.833,58.843 87.740,58.890 87.625 C 58.936 87.510,58.980 87.581,58.987 87.782 C 58.994 87.983,58.921 88.196,58.825 88.255 C 58.593 88.399,58.946 88.829,59.312 88.846 C 59.486 88.855,59.509 88.890,59.374 88.944 C 58.977 89.104,59.355 89.333,60.015 89.333 C 60.450 89.333,60.710 89.419,60.773 89.583 C 60.826 89.721,60.956 89.833,61.062 89.833 C 61.168 89.833,61.385 90.133,61.544 90.500 C 61.702 90.867,61.908 91.167,62.000 91.167 C 62.091 91.167,62.167 91.279,62.167 91.417 C 62.167 91.554,62.223 91.669,62.292 91.671 C 62.360 91.674,62.600 91.974,62.825 92.338 C 63.050 92.702,63.294 93.000,63.367 93.000 C 63.440 93.000,63.500 93.112,63.500 93.250 C 63.500 93.388,63.594 93.503,63.708 93.508 C 63.823 93.512,64.142 93.808,64.417 94.167 C 64.692 94.525,64.973 94.821,65.041 94.826 C 65.110 94.830,65.598 95.244,66.125 95.746 C 66.652 96.249,67.175 96.661,67.287 96.663 C 67.510 96.667,69.050 97.674,69.139 97.875 C 69.169 97.944,69.292 98.000,69.410 98.000 C 69.529 98.000,69.719 98.112,69.833 98.250 C 69.947 98.388,70.183 98.500,70.356 98.500 C 70.672 98.500,70.779 98.541,71.805 99.055 C 72.111 99.208,72.490 99.333,72.648 99.333 C 72.807 99.333,73.082 99.443,73.260 99.578 C 73.438 99.713,73.823 99.825,74.115 99.828 C 74.408 99.831,74.688 99.899,74.738 99.980 C 74.788 100.061,75.317 100.180,75.914 100.244 C 76.511 100.308,77.000 100.429,77.000 100.513 C 77.000 100.598,77.563 100.667,78.250 100.667 L 79.500 100.667 79.500 95.000 L 79.500 89.333 80.417 89.333 C 80.921 89.333,81.333 89.265,81.333 89.182 C 81.333 89.033,82.891 88.737,83.292 88.810 C 83.406 88.831,83.500 88.770,83.500 88.674 C 83.500 88.578,83.350 88.500,83.167 88.500 C 82.983 88.500,82.833 88.425,82.833 88.333 C 82.833 88.026,82.357 88.162,82.250 88.500 C 82.135 88.861,81.676 88.943,81.387 88.654 C 81.205 88.472,79.133 88.529,77.708 88.756 C 77.064 88.858,77.000 88.837,77.000 88.518 C 77.000 88.239,76.897 88.167,76.500 88.167 C 76.225 88.167,76.000 88.242,76.000 88.333 C 76.000 88.703,75.366 88.487,75.265 88.083 C 75.200 87.826,75.042 87.667,74.851 87.667 C 74.680 87.667,74.447 87.554,74.333 87.417 C 74.219 87.279,73.985 87.167,73.813 87.167 C 73.641 87.167,73.500 87.066,73.500 86.943 C 73.500 86.600,72.776 85.833,72.453 85.833 C 72.296 85.833,72.167 85.721,72.167 85.583 C 72.167 85.446,72.054 85.333,71.917 85.333 C 71.779 85.333,71.667 85.255,71.667 85.159 C 71.667 85.063,71.489 84.819,71.271 84.617 C 71.042 84.404,70.827 83.957,70.758 83.552 C 70.694 83.168,70.459 82.658,70.237 82.419 C 70.015 82.179,69.833 81.799,69.833 81.575 C 69.833 81.350,69.758 81.167,69.667 81.167 C 69.564 81.167,69.500 80.361,69.500 79.083 C 69.500 77.806,69.564 77.000,69.667 77.000 C 69.758 77.000,69.833 76.709,69.833 76.354 C 69.833 75.983,69.940 75.619,70.083 75.500 C 70.221 75.386,70.333 75.184,70.333 75.051 C 70.333 74.918,70.446 74.697,70.583 74.560 C 70.721 74.422,70.833 74.127,70.833 73.905 C 70.833 73.682,70.908 73.500,71.000 73.500 C 71.092 73.500,71.167 73.387,71.167 73.250 C 71.167 73.112,71.279 73.000,71.417 73.000 C 71.554 73.000,71.667 72.925,71.667 72.833 C 71.667 72.588,72.297 72.000,72.560 72.000 C 72.685 72.000,72.928 71.807,73.102 71.571 C 73.759 70.674,74.423 70.100,75.042 69.892 C 75.202 69.839,75.333 69.728,75.333 69.647 C 75.333 69.443,75.896 69.462,76.107 69.674 C 76.228 69.794,76.346 69.769,76.494 69.590 C 76.624 69.434,76.980 69.333,77.404 69.333 C 77.787 69.333,78.190 69.244,78.299 69.134 C 78.716 68.718,82.113 68.937,82.627 69.414 C 82.919 69.684,83.130 69.770,83.237 69.663 C 83.429 69.471,84.000 69.444,84.000 69.627 C 84.000 69.754,84.494 70.056,85.042 70.262 C 85.202 70.323,85.333 70.476,85.333 70.603 C 85.333 70.730,85.437 70.833,85.564 70.833 C 85.691 70.833,85.831 70.973,85.876 71.144 C 85.928 71.344,86.173 71.495,86.562 71.568 C 86.928 71.637,87.167 71.777,87.167 71.924 C 87.167 72.058,87.251 72.167,87.354 72.167 C 87.490 72.167,87.491 72.227,87.358 72.387 C 87.218 72.556,87.330 72.758,87.838 73.254 C 88.202 73.610,88.500 74.027,88.500 74.180 C 88.500 74.334,88.612 74.553,88.750 74.667 C 88.888 74.781,89.000 74.977,89.000 75.104 C 89.000 75.230,89.075 75.333,89.167 75.333 C 89.258 75.333,89.333 75.598,89.333 75.922 C 89.333 76.291,89.426 76.546,89.583 76.606 C 89.782 76.683,89.833 77.036,89.833 78.323 C 89.833 79.653,89.878 79.944,90.083 79.944 C 90.247 79.944,90.333 79.781,90.333 79.472 C 90.333 79.176,90.421 79.000,90.569 79.000 C 90.699 79.000,90.833 78.917,90.867 78.817 C 90.958 78.543,101.336 78.567,101.505 78.842 C 101.842 79.386,102.000 78.714,102.000 76.740 C 102.000 75.469,102.064 74.667,102.167 74.667 C 102.542 74.667,102.344 73.691,101.958 73.637 C 101.632 73.590,101.577 73.471,101.533 72.708 C 101.505 72.227,101.411 71.833,101.325 71.833 C 101.238 71.833,101.167 71.643,101.167 71.411 C 101.167 71.179,101.054 70.946,100.917 70.894 C 100.779 70.841,100.667 70.616,100.667 70.394 C 100.667 70.171,100.554 69.946,100.417 69.894 C 100.279 69.841,100.167 69.618,100.167 69.399 C 100.167 69.179,100.101 69.000,100.021 69.000 C 99.941 69.000,99.828 68.700,99.769 68.333 C 99.711 67.967,99.589 67.667,99.498 67.667 C 99.407 67.667,99.333 67.554,99.333 67.417 C 99.333 67.279,99.226 67.167,99.095 67.167 C 98.964 67.167,98.833 66.998,98.803 66.792 C 98.765 66.523,98.620 66.402,98.292 66.364 C 98.040 66.335,97.833 66.233,97.833 66.138 C 97.833 66.042,97.946 66.008,98.083 66.060 C 98.221 66.113,98.333 66.084,98.333 65.995 C 98.333 65.906,98.266 65.833,98.185 65.833 C 98.103 65.833,97.989 65.646,97.932 65.417 C 97.874 65.188,97.753 65.000,97.663 65.000 C 97.574 65.000,97.500 64.887,97.500 64.750 C 97.500 64.612,97.388 64.500,97.250 64.500 C 97.112 64.500,97.000 64.419,97.000 64.321 C 97.000 64.087,96.079 63.167,95.846 63.167 C 95.747 63.167,95.667 63.054,95.667 62.917 C 95.667 62.779,95.554 62.667,95.417 62.667 C 95.279 62.667,95.167 62.586,95.167 62.488 C 95.167 62.266,94.746 61.833,94.530 61.833 C 94.442 61.833,94.324 61.652,94.268 61.430 C 94.198 61.148,94.008 60.992,93.641 60.911 C 93.149 60.803,92.333 60.119,92.333 59.815 C 92.333 59.740,91.958 59.628,91.500 59.568 C 90.959 59.496,90.667 59.377,90.667 59.229 C 90.667 59.103,90.554 59.000,90.417 59.000 C 90.279 59.000,90.167 58.925,90.167 58.833 C 90.167 58.742,89.979 58.667,89.750 58.667 C 89.491 58.667,89.333 58.572,89.333 58.417 C 89.333 58.260,89.175 58.167,88.913 58.167 C 88.617 58.167,88.445 58.043,88.333 57.750 C 88.175 57.334,87.333 57.124,87.333 57.500 C 87.333 57.745,86.799 57.693,86.426 57.411 C 86.249 57.277,85.934 57.167,85.728 57.167 C 85.522 57.167,85.307 57.092,85.250 57.000 C 85.193 56.908,84.739 56.833,84.240 56.833 C 83.741 56.833,83.333 56.773,83.333 56.699 C 83.333 56.625,83.046 56.437,82.694 56.282 C 81.958 55.958,77.333 55.858,77.333 56.167 C 77.333 56.258,77.108 56.333,76.833 56.333 C 76.500 56.333,76.333 56.417,76.333 56.583 C 76.333 56.775,76.122 56.833,75.431 56.833 C 74.934 56.833,74.503 56.902,74.472 56.986 C 74.382 57.234,73.059 57.257,72.769 57.015 C 72.546 56.830,72.487 56.841,72.394 57.081 C 72.330 57.249,72.381 57.428,72.517 57.514 C 72.696 57.627,72.671 57.662,72.408 57.664 C 72.220 57.666,71.972 57.573,71.856 57.458 C 71.688 57.291,71.613 57.308,71.481 57.542 C 71.391 57.702,71.180 57.833,71.012 57.833 C 70.845 57.833,70.621 57.938,70.515 58.065 C 70.410 58.192,70.138 58.332,69.912 58.375 L 69.500 58.454 69.500 50.472 C 69.500 43.530,69.467 42.477,69.250 42.394 C 69.112 42.341,69.000 42.193,69.000 42.066 C 69.000 41.938,68.887 41.833,68.750 41.833 C 68.612 41.833,68.500 41.734,68.500 41.611 C 68.500 41.489,68.313 41.289,68.083 41.167 C 67.854 41.044,67.667 40.853,67.667 40.742 C 67.667 40.393,67.179 40.087,66.964 40.302 C 66.824 40.442,66.729 40.395,66.593 40.120 C 66.471 39.875,66.228 39.732,65.871 39.698 C 65.539 39.666,65.333 39.554,65.333 39.406 C 65.333 39.274,65.270 39.167,65.193 39.167 C 65.116 39.167,64.971 38.986,64.871 38.766 C 64.759 38.520,64.486 38.320,64.169 38.250 C 63.875 38.186,63.288 37.780,62.818 37.318 C 62.361 36.868,61.848 36.500,61.678 36.500 C 61.488 36.500,61.329 36.340,61.265 36.083 C 61.190 35.783,61.048 35.667,60.760 35.667 C 60.389 35.667,59.440 34.902,59.303 34.494 C 59.163 34.073,57.391 34.097,57.277 34.521 M200.667 48.917 C 200.667 49.054,200.589 49.167,200.493 49.167 C 200.158 49.167,199.333 49.900,199.333 50.198 C 199.333 50.364,199.221 50.500,199.083 50.500 C 198.876 50.500,198.833 50.825,198.833 52.422 C 198.833 53.977,198.881 54.362,199.083 54.440 C 199.221 54.492,199.333 54.640,199.333 54.768 C 199.333 54.896,199.414 55.000,199.512 55.000 C 199.743 55.000,200.167 55.424,200.167 55.655 C 200.167 55.753,200.392 55.833,200.667 55.833 C 201.000 55.833,201.167 55.917,201.167 56.083 C 201.167 56.290,201.472 56.333,202.917 56.333 C 204.361 56.333,204.667 56.290,204.667 56.083 C 204.667 55.917,204.833 55.833,205.167 55.833 C 205.500 55.833,205.667 55.750,205.667 55.583 C 205.667 55.446,205.747 55.333,205.845 55.333 C 206.068 55.333,206.500 54.913,206.500 54.696 C 206.500 54.608,206.612 54.492,206.750 54.440 C 206.952 54.362,207.000 53.977,207.000 52.422 C 207.000 50.825,206.958 50.500,206.750 50.500 C 206.612 50.500,206.500 50.387,206.500 50.250 C 206.500 50.112,206.425 50.000,206.333 50.000 C 206.242 50.000,206.167 49.887,206.167 49.750 C 206.167 49.612,206.054 49.500,205.917 49.500 C 205.779 49.500,205.667 49.425,205.667 49.333 C 205.667 49.242,205.554 49.167,205.417 49.167 C 205.279 49.167,205.167 49.054,205.167 48.917 C 205.167 48.707,204.806 48.667,202.917 48.667 C 201.028 48.667,200.667 48.707,200.667 48.917 M120.167 67.167 L 120.167 84.333 131.670 84.333 L 143.174 84.333 143.129 81.208 L 143.083 78.083 135.708 78.040 L 128.333 77.997 128.333 63.998 L 128.333 50.000 124.250 50.000 L 120.167 50.000 120.167 67.167 M239.667 67.167 L 239.667 84.333 248.816 84.333 C 256.794 84.333,257.977 84.301,258.060 84.083 C 258.124 83.918,258.385 83.833,258.828 83.833 C 259.198 83.833,259.500 83.758,259.500 83.667 C 259.500 83.575,259.720 83.500,259.988 83.500 C 260.257 83.500,260.589 83.387,260.726 83.250 C 260.864 83.112,261.096 83.000,261.243 83.000 C 261.390 83.000,261.554 82.887,261.606 82.750 C 261.659 82.612,261.807 82.500,261.934 82.500 C 262.062 82.500,262.167 82.425,262.167 82.333 C 262.167 82.242,262.279 82.167,262.417 82.167 C 262.554 82.167,262.667 82.062,262.667 81.935 C 262.667 81.807,262.854 81.656,263.083 81.598 C 263.388 81.522,263.500 81.382,263.500 81.080 C 263.500 80.824,263.595 80.667,263.750 80.667 C 263.887 80.667,264.000 80.592,264.000 80.500 C 264.000 80.408,264.094 80.333,264.210 80.333 C 264.506 80.333,265.333 78.445,265.333 77.767 C 265.333 77.419,265.429 77.166,265.583 77.106 C 265.791 77.027,265.833 76.560,265.833 74.339 C 265.833 72.075,265.795 71.667,265.583 71.667 C 265.403 71.667,265.333 71.481,265.333 71.000 C 265.333 70.633,265.258 70.333,265.167 70.333 C 265.075 70.333,265.000 70.181,265.000 69.995 C 265.000 69.809,264.887 69.613,264.750 69.560 C 264.612 69.508,264.500 69.360,264.500 69.232 C 264.500 69.104,264.387 69.000,264.250 69.000 C 264.112 69.000,264.000 68.902,264.000 68.781 C 264.000 68.512,263.140 67.667,262.866 67.667 C 262.756 67.667,262.667 67.554,262.667 67.417 C 262.667 67.278,262.519 67.167,262.333 67.167 C 262.150 67.167,262.000 67.097,262.000 67.011 C 262.000 66.926,261.850 66.808,261.667 66.750 C 261.233 66.612,261.237 66.333,261.672 66.333 C 261.858 66.333,262.054 66.221,262.106 66.083 C 262.159 65.946,262.307 65.833,262.434 65.833 C 262.562 65.833,262.667 65.721,262.667 65.583 C 262.667 65.446,262.779 65.333,262.917 65.333 C 263.054 65.333,263.167 65.239,263.167 65.123 C 263.167 65.007,263.354 64.772,263.583 64.600 C 263.822 64.421,264.000 64.118,264.000 63.893 C 264.000 63.655,264.098 63.500,264.250 63.500 C 264.397 63.500,264.502 63.345,264.505 63.125 C 264.508 62.919,264.621 62.604,264.755 62.426 C 265.119 61.945,265.114 56.533,264.750 56.394 C 264.587 56.331,264.500 56.072,264.500 55.649 C 264.500 55.183,264.429 55.000,264.250 55.000 C 264.109 55.000,264.000 54.851,264.000 54.659 C 264.000 54.471,263.813 54.144,263.583 53.931 C 263.354 53.719,263.167 53.460,263.167 53.356 C 263.167 53.252,263.054 53.167,262.917 53.167 C 262.779 53.167,262.667 53.054,262.667 52.917 C 262.667 52.779,262.554 52.667,262.417 52.667 C 262.279 52.667,262.167 52.592,262.167 52.500 C 262.167 52.408,262.054 52.333,261.917 52.333 C 261.779 52.333,261.667 52.221,261.667 52.083 C 261.667 51.928,261.509 51.833,261.250 51.833 C 260.991 51.833,260.833 51.739,260.833 51.583 C 260.833 51.431,260.678 51.333,260.434 51.333 C 260.215 51.333,259.992 51.221,259.940 51.083 C 259.887 50.946,259.658 50.833,259.432 50.833 C 259.205 50.833,258.973 50.758,258.917 50.667 C 258.860 50.575,258.451 50.500,258.008 50.500 C 257.446 50.500,257.173 50.425,257.106 50.250 C 257.023 50.032,255.893 50.000,248.339 50.000 L 239.667 50.000 239.667 67.167 M212.500 55.500 L 212.500 58.667 210.663 58.667 L 208.825 58.667 208.871 61.542 L 208.917 64.417 210.708 64.464 L 212.500 64.511 212.500 71.329 C 212.500 75.695,212.560 78.184,212.667 78.250 C 212.758 78.307,212.833 78.874,212.833 79.510 C 212.833 80.427,212.885 80.667,213.083 80.667 C 213.248 80.667,213.333 80.831,213.333 81.146 C 213.333 81.410,213.446 81.719,213.583 81.833 C 213.721 81.947,213.833 82.144,213.833 82.270 C 213.833 82.397,213.946 82.500,214.083 82.500 C 214.221 82.500,214.333 82.612,214.333 82.750 C 214.333 82.887,214.408 83.000,214.500 83.000 C 214.592 83.000,214.667 83.112,214.667 83.250 C 214.667 83.387,214.779 83.500,214.917 83.500 C 215.054 83.500,215.167 83.575,215.167 83.667 C 215.167 83.758,215.271 83.833,215.399 83.833 C 215.527 83.833,215.674 83.946,215.727 84.083 C 215.787 84.240,216.042 84.333,216.411 84.333 C 216.823 84.333,217.000 84.408,217.000 84.583 C 217.000 84.786,217.267 84.833,218.407 84.833 C 219.181 84.833,219.860 84.908,219.917 85.000 C 219.973 85.092,220.203 85.167,220.427 85.167 C 220.650 85.167,220.833 85.092,220.833 85.000 C 220.833 84.900,221.500 84.833,222.500 84.833 C 223.870 84.833,224.167 84.789,224.167 84.583 C 224.167 84.446,224.279 84.333,224.417 84.333 C 224.629 84.333,224.667 83.898,224.667 81.417 L 224.667 78.500 222.833 78.500 C 221.315 78.500,221.000 78.457,221.000 78.250 C 221.000 78.112,220.926 78.000,220.837 78.000 C 220.747 78.000,220.626 77.813,220.568 77.583 C 220.511 77.354,220.397 77.167,220.315 77.167 C 220.231 77.167,220.167 74.433,220.167 70.838 L 220.167 64.510 222.375 64.463 L 224.583 64.417 224.629 61.542 L 224.675 58.667 222.421 58.667 L 220.167 58.667 220.167 55.500 L 220.167 52.333 216.333 52.333 L 212.500 52.333 212.500 55.500 M294.833 55.500 L 294.833 58.667 289.502 58.667 C 283.488 58.667,283.500 58.664,283.500 59.850 C 283.500 60.188,283.389 60.551,283.250 60.667 C 283.106 60.786,283.000 61.149,283.000 61.520 C 283.000 61.876,282.930 62.167,282.844 62.167 C 282.757 62.167,282.636 62.504,282.575 62.917 C 282.513 63.329,282.396 63.667,282.314 63.667 C 282.233 63.667,282.167 64.042,282.167 64.500 C 282.167 65.130,282.106 65.333,281.917 65.333 C 281.736 65.333,281.667 65.519,281.667 66.005 C 281.667 66.449,281.582 66.710,281.417 66.773 C 281.254 66.836,281.167 67.095,281.167 67.518 C 281.167 67.875,281.092 68.167,281.000 68.167 C 280.908 68.167,280.833 68.534,280.833 68.982 C 280.833 69.553,280.758 69.826,280.583 69.894 C 280.418 69.957,280.333 70.218,280.333 70.661 C 280.333 71.148,280.264 71.333,280.083 71.333 C 279.903 71.333,279.833 71.519,279.833 72.000 C 279.833 72.481,279.764 72.667,279.583 72.667 C 279.403 72.667,279.333 72.481,279.333 72.000 C 279.333 71.633,279.258 71.333,279.167 71.333 C 279.075 71.333,279.000 71.031,279.000 70.661 C 279.000 70.218,278.915 69.957,278.750 69.894 C 278.575 69.826,278.500 69.553,278.500 68.982 C 278.500 68.368,278.438 68.167,278.250 68.167 C 278.070 68.167,278.000 67.983,278.000 67.510 C 278.000 67.149,277.925 66.807,277.833 66.750 C 277.742 66.693,277.667 66.387,277.667 66.068 C 277.667 65.708,277.572 65.453,277.417 65.394 C 277.242 65.326,277.167 65.053,277.167 64.482 C 277.167 63.868,277.105 63.667,276.917 63.667 C 276.731 63.667,276.667 63.472,276.667 62.917 C 276.667 62.361,276.602 62.167,276.417 62.167 C 276.236 62.167,276.167 61.981,276.167 61.500 C 276.167 61.133,276.092 60.833,276.000 60.833 C 275.908 60.833,275.833 60.507,275.833 60.109 C 275.833 58.675,275.805 58.667,271.189 58.667 L 267.167 58.667 267.167 59.063 C 267.167 59.281,267.279 59.553,267.417 59.667 C 267.554 59.781,267.667 60.090,267.667 60.354 C 267.667 60.669,267.752 60.833,267.917 60.833 C 268.097 60.833,268.167 61.019,268.167 61.500 C 268.167 61.867,268.242 62.167,268.333 62.167 C 268.425 62.167,268.500 62.467,268.500 62.833 C 268.500 63.315,268.569 63.500,268.750 63.500 C 268.931 63.500,269.000 63.685,269.000 64.167 C 269.000 64.648,269.069 64.833,269.250 64.833 C 269.431 64.833,269.500 65.019,269.500 65.500 C 269.500 65.867,269.575 66.167,269.667 66.167 C 269.758 66.167,269.834 66.335,269.834 66.542 C 269.835 66.748,269.947 67.131,270.084 67.394 C 270.221 67.657,270.333 67.999,270.333 68.154 C 270.333 68.309,270.443 68.582,270.578 68.760 C 270.713 68.938,270.825 69.252,270.828 69.458 C 270.831 69.678,270.937 69.833,271.083 69.833 C 271.264 69.833,271.333 70.019,271.333 70.500 C 271.333 70.867,271.408 71.167,271.500 71.167 C 271.592 71.167,271.667 71.469,271.667 71.839 C 271.667 72.282,271.752 72.543,271.917 72.606 C 272.072 72.666,272.167 72.919,272.167 73.273 C 272.167 73.627,272.262 73.880,272.417 73.940 C 272.580 74.002,272.667 74.262,272.667 74.684 C 272.667 75.041,272.732 75.333,272.812 75.333 C 272.892 75.333,273.005 75.633,273.064 76.000 C 273.123 76.367,273.245 76.667,273.335 76.667 C 273.426 76.667,273.500 76.886,273.500 77.155 C 273.500 77.423,273.612 77.755,273.750 77.893 C 273.887 78.030,274.000 78.327,274.000 78.551 C 274.000 78.776,274.112 79.053,274.250 79.167 C 274.387 79.281,274.500 79.590,274.500 79.854 C 274.500 80.118,274.575 80.333,274.667 80.333 C 274.758 80.333,274.833 80.598,274.833 80.922 C 274.833 81.291,274.926 81.546,275.083 81.606 C 275.246 81.669,275.333 81.928,275.333 82.351 C 275.333 82.817,275.404 83.000,275.583 83.000 C 275.782 83.000,275.833 83.241,275.833 84.167 C 275.833 85.093,275.782 85.333,275.583 85.333 C 275.428 85.333,275.333 85.491,275.333 85.750 C 275.333 85.979,275.266 86.167,275.185 86.167 C 275.103 86.167,274.987 86.363,274.927 86.603 C 274.806 87.082,274.458 87.500,274.179 87.500 C 274.080 87.500,274.000 87.612,274.000 87.750 C 274.000 87.931,273.815 88.000,273.333 88.000 C 272.860 88.000,272.667 88.071,272.667 88.243 C 272.667 88.433,272.364 88.497,271.292 88.535 L 269.917 88.583 269.869 91.083 C 269.808 94.277,269.822 94.333,270.670 94.333 C 271.149 94.333,271.333 94.403,271.333 94.583 C 271.333 94.945,275.116 94.949,275.593 94.589 C 275.771 94.454,276.198 94.342,276.542 94.339 C 276.984 94.335,277.167 94.260,277.167 94.083 C 277.167 93.928,277.324 93.833,277.583 93.833 C 277.843 93.833,278.000 93.739,278.000 93.583 C 278.000 93.446,278.112 93.333,278.250 93.333 C 278.387 93.333,278.500 93.266,278.500 93.185 C 278.500 93.103,278.688 92.989,278.917 92.932 C 279.146 92.874,279.333 92.716,279.333 92.580 C 279.333 92.444,279.403 92.333,279.489 92.333 C 279.574 92.333,279.692 92.183,279.750 92.000 C 279.808 91.817,279.963 91.667,280.095 91.667 C 280.226 91.667,280.333 91.562,280.333 91.434 C 280.333 91.307,280.446 91.159,280.583 91.106 C 280.721 91.054,280.833 90.821,280.833 90.589 C 280.833 90.357,280.908 90.167,281.000 90.167 C 281.092 90.167,281.167 89.979,281.167 89.750 C 281.167 89.491,281.261 89.333,281.417 89.333 C 281.581 89.333,281.667 89.169,281.667 88.854 C 281.667 88.590,281.779 88.281,281.917 88.167 C 282.054 88.053,282.167 87.743,282.167 87.480 C 282.167 87.216,282.242 87.000,282.333 87.000 C 282.425 87.000,282.500 86.700,282.500 86.333 C 282.500 85.852,282.569 85.667,282.750 85.667 C 282.931 85.667,283.000 85.481,283.000 85.000 C 283.000 84.519,283.069 84.333,283.250 84.333 C 283.429 84.333,283.500 84.150,283.500 83.684 C 283.500 83.262,283.587 83.002,283.750 82.940 C 283.907 82.880,284.000 82.625,284.000 82.255 C 284.000 81.932,284.075 81.667,284.167 81.667 C 284.258 81.667,284.333 81.367,284.333 81.000 C 284.333 80.519,284.403 80.333,284.583 80.333 C 284.763 80.333,284.833 80.150,284.833 79.684 C 284.833 79.262,284.920 79.002,285.083 78.940 C 285.228 78.884,285.333 78.635,285.333 78.348 C 285.333 78.076,285.408 77.807,285.500 77.750 C 285.592 77.693,285.667 77.434,285.667 77.175 C 285.667 76.909,285.776 76.660,285.917 76.606 C 286.072 76.547,286.167 76.293,286.167 75.940 C 286.167 75.586,286.262 75.332,286.417 75.273 C 286.565 75.216,286.667 74.966,286.667 74.660 C 286.667 74.376,286.779 74.030,286.917 73.893 C 287.054 73.755,287.167 73.428,287.167 73.165 C 287.167 72.902,287.242 72.640,287.333 72.583 C 287.425 72.527,287.500 72.185,287.500 71.823 C 287.500 71.351,287.570 71.167,287.750 71.167 C 287.931 71.167,288.000 70.981,288.000 70.500 C 288.000 70.019,288.069 69.833,288.250 69.833 C 288.431 69.833,288.500 69.648,288.500 69.167 C 288.500 68.800,288.575 68.500,288.667 68.500 C 288.758 68.500,288.833 68.307,288.833 68.071 C 288.833 67.836,288.946 67.530,289.083 67.393 C 289.221 67.255,289.333 66.931,289.333 66.673 C 289.333 66.408,289.443 66.160,289.583 66.106 C 289.731 66.050,289.833 65.799,289.833 65.493 C 289.833 65.209,289.946 64.864,290.083 64.726 C 290.221 64.589,290.333 64.257,290.333 63.988 C 290.333 63.720,290.408 63.500,290.500 63.500 C 290.592 63.500,290.667 63.200,290.667 62.833 C 290.667 61.582,291.144 61.991,291.201 63.292 L 291.250 64.417 293.038 64.464 L 294.826 64.511 294.888 71.297 C 294.948 77.822,295.140 80.667,295.520 80.667 C 295.600 80.667,295.667 80.882,295.667 81.146 C 295.667 81.410,295.779 81.719,295.917 81.833 C 296.054 81.947,296.167 82.144,296.167 82.270 C 296.167 82.397,296.279 82.500,296.417 82.500 C 296.554 82.500,296.667 82.612,296.667 82.750 C 296.667 82.887,296.742 83.000,296.833 83.000 C 296.925 83.000,297.000 83.112,297.000 83.250 C 297.000 83.387,297.112 83.500,297.250 83.500 C 297.387 83.500,297.500 83.575,297.500 83.667 C 297.500 83.758,297.604 83.833,297.732 83.833 C 297.860 83.833,298.008 83.946,298.060 84.083 C 298.120 84.240,298.375 84.333,298.745 84.333 C 299.157 84.333,299.333 84.408,299.333 84.583 C 299.333 84.786,299.601 84.833,300.740 84.833 C 301.514 84.833,302.193 84.908,302.250 85.000 C 302.307 85.092,302.536 85.167,302.760 85.167 C 302.984 85.167,303.167 85.092,303.167 85.000 C 303.167 84.900,303.833 84.833,304.833 84.833 C 306.204 84.833,306.500 84.789,306.500 84.583 C 306.500 84.446,306.612 84.333,306.750 84.333 C 306.963 84.333,307.000 83.898,307.000 81.417 L 307.000 78.500 305.167 78.500 C 303.648 78.500,303.333 78.457,303.333 78.250 C 303.333 78.112,303.266 78.000,303.185 78.000 C 303.103 78.000,302.989 77.813,302.932 77.583 C 302.874 77.354,302.753 77.167,302.663 77.167 C 302.559 77.167,302.500 74.864,302.500 70.838 L 302.500 64.510 304.708 64.463 L 306.917 64.417 306.962 61.542 L 307.008 58.667 304.754 58.667 L 302.500 58.667 302.500 55.500 L 302.500 52.333 298.667 52.333 L 294.833 52.333 294.833 55.500 M254.227 56.583 C 254.284 56.732,254.534 56.833,254.843 56.833 C 255.447 56.833,256.833 58.115,256.833 58.673 C 256.833 58.853,256.908 59.000,257.000 59.000 C 257.095 59.000,257.167 59.500,257.167 60.167 C 257.167 60.833,257.095 61.333,257.000 61.333 C 256.908 61.333,256.833 61.479,256.833 61.657 C 256.833 62.237,255.418 63.500,254.769 63.500 C 254.419 63.500,254.166 63.596,254.106 63.750 C 254.026 63.960,253.504 64.000,250.839 64.000 L 247.667 64.000 247.667 60.167 L 247.667 56.333 250.899 56.333 C 253.618 56.333,254.146 56.373,254.227 56.583 M153.833 58.417 C 153.714 58.560,153.351 58.667,152.980 58.667 C 152.624 58.667,152.333 58.742,152.333 58.833 C 152.333 58.925,152.108 59.000,151.833 59.000 C 151.500 59.000,151.333 59.083,151.333 59.250 C 151.333 59.406,151.176 59.500,150.917 59.500 C 150.657 59.500,150.500 59.594,150.500 59.750 C 150.500 59.906,150.343 60.000,150.083 60.000 C 149.854 60.000,149.667 60.075,149.667 60.167 C 149.667 60.258,149.554 60.333,149.417 60.333 C 149.279 60.333,149.167 60.446,149.167 60.583 C 149.167 60.721,149.054 60.833,148.917 60.833 C 148.779 60.833,148.667 60.946,148.667 61.083 C 148.667 61.221,148.554 61.333,148.417 61.333 C 148.279 61.333,148.167 61.416,148.167 61.518 C 148.167 61.619,147.979 61.850,147.750 62.030 C 147.510 62.219,147.333 62.529,147.333 62.762 C 147.333 63.011,147.237 63.167,147.083 63.167 C 146.946 63.167,146.833 63.271,146.833 63.399 C 146.833 63.527,146.721 63.674,146.583 63.727 C 146.446 63.780,146.333 63.975,146.333 64.161 C 146.333 64.348,146.258 64.500,146.167 64.500 C 146.075 64.500,146.000 64.800,146.000 65.167 C 146.000 65.648,145.931 65.833,145.750 65.833 C 145.571 65.833,145.500 66.017,145.500 66.482 C 145.500 66.905,145.413 67.164,145.250 67.227 C 145.050 67.304,145.000 67.671,145.000 69.068 C 145.000 70.052,144.927 70.859,144.833 70.917 C 144.742 70.973,144.667 71.428,144.667 71.927 C 144.667 72.425,144.742 72.833,144.833 72.833 C 144.933 72.833,145.000 73.500,145.000 74.500 C 145.000 75.870,145.044 76.167,145.250 76.167 C 145.431 76.167,145.500 76.352,145.500 76.833 C 145.500 77.315,145.569 77.500,145.750 77.500 C 145.931 77.500,146.000 77.685,146.000 78.167 C 146.000 78.533,146.075 78.833,146.167 78.833 C 146.258 78.833,146.333 78.946,146.333 79.083 C 146.333 79.221,146.446 79.333,146.583 79.333 C 146.735 79.333,146.833 79.488,146.833 79.727 C 146.833 79.952,147.012 80.254,147.250 80.433 C 147.479 80.605,147.667 80.840,147.667 80.956 C 147.667 81.072,147.779 81.167,147.917 81.167 C 148.054 81.167,148.167 81.279,148.167 81.417 C 148.167 81.554,148.279 81.667,148.417 81.667 C 148.554 81.667,148.667 81.779,148.667 81.917 C 148.667 82.054,148.752 82.167,148.856 82.167 C 148.960 82.167,149.219 82.354,149.431 82.583 C 149.644 82.813,149.971 83.000,150.159 83.000 C 150.351 83.000,150.500 83.109,150.500 83.250 C 150.500 83.406,150.657 83.500,150.917 83.500 C 151.146 83.500,151.333 83.575,151.333 83.667 C 151.333 83.758,151.558 83.833,151.833 83.833 C 152.167 83.833,152.333 83.917,152.333 84.083 C 152.333 84.264,152.519 84.333,153.000 84.333 C 153.481 84.333,153.667 84.403,153.667 84.583 C 153.667 84.790,153.981 84.833,155.500 84.833 C 156.611 84.833,157.333 84.899,157.333 85.000 C 157.333 85.092,157.483 85.167,157.667 85.167 C 157.850 85.167,158.000 85.092,158.000 85.000 C 158.000 84.899,158.722 84.833,159.833 84.833 C 161.352 84.833,161.667 84.790,161.667 84.583 C 161.667 84.398,161.861 84.333,162.417 84.333 C 162.972 84.333,163.167 84.269,163.167 84.083 C 163.167 83.928,163.324 83.833,163.583 83.833 C 163.813 83.833,164.000 83.758,164.000 83.667 C 164.000 83.575,164.190 83.500,164.422 83.500 C 164.654 83.500,164.887 83.387,164.940 83.250 C 164.992 83.112,165.180 83.000,165.356 83.000 C 165.533 83.000,165.720 82.887,165.773 82.750 C 165.826 82.612,165.941 82.500,166.030 82.500 C 166.246 82.500,166.667 82.068,166.667 81.845 C 166.667 81.747,166.779 81.667,166.917 81.667 C 167.054 81.667,167.167 81.554,167.167 81.417 C 167.167 81.279,167.279 81.167,167.417 81.167 C 167.554 81.167,167.667 81.054,167.667 80.917 C 167.667 80.779,167.736 80.667,167.822 80.667 C 168.094 80.667,168.110 79.932,167.848 79.458 C 167.709 79.206,167.498 79.000,167.381 79.000 C 167.263 79.000,167.167 78.887,167.167 78.750 C 167.167 78.612,167.054 78.500,166.917 78.500 C 166.779 78.500,166.667 78.420,166.667 78.321 C 166.667 78.091,166.243 77.667,166.012 77.667 C 165.914 77.667,165.833 77.554,165.833 77.417 C 165.833 77.279,165.721 77.167,165.583 77.167 C 165.446 77.167,165.333 77.054,165.333 76.917 C 165.333 76.779,165.270 76.667,165.193 76.667 C 165.116 76.667,164.968 76.479,164.864 76.250 C 164.558 75.580,163.167 76.194,163.167 76.999 C 163.167 77.091,162.979 77.167,162.750 77.167 C 162.491 77.167,162.333 77.261,162.333 77.417 C 162.333 77.554,162.221 77.667,162.083 77.667 C 161.946 77.667,161.833 77.742,161.833 77.833 C 161.833 77.925,161.608 78.000,161.333 78.000 C 161.000 78.000,160.833 78.083,160.833 78.250 C 160.833 78.446,160.603 78.500,159.762 78.500 C 159.040 78.500,158.610 78.580,158.445 78.746 C 158.228 78.962,158.188 78.962,158.105 78.746 C 158.035 78.564,157.727 78.500,156.922 78.500 C 156.065 78.500,155.833 78.447,155.833 78.250 C 155.833 78.094,155.676 78.000,155.417 78.000 C 155.188 78.000,155.000 77.925,155.000 77.833 C 155.000 77.742,154.887 77.667,154.750 77.667 C 154.612 77.667,154.500 77.554,154.500 77.417 C 154.500 77.279,154.387 77.167,154.250 77.167 C 154.112 77.167,154.000 77.054,154.000 76.917 C 154.000 76.779,153.933 76.667,153.851 76.667 C 153.770 76.667,153.656 76.479,153.598 76.250 C 153.541 76.021,153.420 75.833,153.330 75.833 C 153.240 75.833,153.167 75.681,153.167 75.495 C 153.167 75.309,153.054 75.113,152.917 75.060 C 152.774 75.006,152.667 74.757,152.667 74.482 L 152.667 74.000 160.583 74.000 L 168.500 74.000 168.500 70.833 C 168.500 68.833,168.439 67.667,168.333 67.667 C 168.242 67.667,168.167 67.306,168.167 66.865 C 168.167 66.418,168.058 65.920,167.922 65.740 C 167.787 65.562,167.675 65.210,167.672 64.958 C 167.669 64.664,167.577 64.500,167.417 64.500 C 167.250 64.500,167.167 64.333,167.167 64.000 C 167.167 63.667,167.083 63.500,166.917 63.500 C 166.761 63.500,166.667 63.343,166.667 63.083 C 166.667 62.854,166.600 62.667,166.518 62.667 C 166.436 62.667,166.322 62.479,166.265 62.250 C 166.207 62.021,166.087 61.833,165.997 61.833 C 165.907 61.833,165.833 61.721,165.833 61.583 C 165.833 61.446,165.721 61.333,165.583 61.333 C 165.446 61.333,165.332 61.240,165.330 61.125 C 165.325 60.865,164.123 60.000,163.765 60.000 C 163.619 60.000,163.500 59.887,163.500 59.750 C 163.500 59.594,163.343 59.500,163.083 59.500 C 162.824 59.500,162.667 59.406,162.667 59.250 C 162.667 59.096,162.510 59.000,162.260 59.000 C 162.036 59.000,161.807 58.925,161.750 58.833 C 161.693 58.742,161.351 58.667,160.990 58.667 C 160.517 58.667,160.333 58.597,160.333 58.417 C 160.333 58.203,159.873 58.167,157.187 58.167 C 154.594 58.167,154.004 58.211,153.833 58.417 M178.227 58.417 C 178.164 58.580,177.905 58.667,177.482 58.667 C 177.125 58.667,176.833 58.742,176.833 58.833 C 176.833 58.925,176.689 59.000,176.512 59.000 C 176.335 59.000,176.078 59.112,175.940 59.250 C 175.803 59.387,175.610 59.500,175.512 59.500 C 175.414 59.500,175.333 59.612,175.333 59.750 C 175.333 59.887,175.230 60.000,175.103 60.000 C 174.803 60.000,173.500 61.303,173.500 61.603 C 173.500 61.730,173.420 61.833,173.321 61.833 C 173.003 61.833,172.667 62.299,172.667 62.738 C 172.667 63.008,172.574 63.167,172.417 63.167 C 172.261 63.167,172.167 63.324,172.167 63.583 C 172.167 63.843,172.072 64.000,171.917 64.000 C 171.750 64.000,171.667 64.167,171.667 64.500 C 171.667 64.775,171.592 65.000,171.500 65.000 C 171.408 65.000,171.333 65.300,171.333 65.667 C 171.333 66.148,171.264 66.333,171.083 66.333 C 170.882 66.333,170.833 66.594,170.833 67.679 C 170.833 68.652,170.764 69.093,170.583 69.274 C 170.389 69.468,170.333 69.966,170.333 71.500 C 170.333 73.034,170.389 73.532,170.583 73.726 C 170.764 73.907,170.833 74.348,170.833 75.321 C 170.833 76.406,170.882 76.667,171.083 76.667 C 171.264 76.667,171.333 76.852,171.333 77.333 C 171.333 77.700,171.408 78.000,171.500 78.000 C 171.592 78.000,171.667 78.220,171.667 78.488 C 171.667 78.757,171.760 79.078,171.875 79.203 C 172.124 79.475,172.460 79.988,172.614 80.333 C 172.675 80.471,172.769 80.621,172.821 80.667 C 172.985 80.810,173.339 81.404,173.441 81.708 C 173.495 81.869,173.643 82.000,173.769 82.000 C 173.896 82.000,174.000 82.112,174.000 82.250 C 174.000 82.387,174.112 82.500,174.250 82.500 C 174.387 82.500,174.500 82.612,174.500 82.750 C 174.500 82.906,174.657 83.000,174.917 83.000 C 175.176 83.000,175.333 83.094,175.333 83.250 C 175.333 83.387,175.446 83.500,175.583 83.500 C 175.721 83.500,175.833 83.575,175.833 83.667 C 175.833 83.758,176.021 83.833,176.250 83.833 C 176.509 83.833,176.667 83.928,176.667 84.083 C 176.667 84.248,176.831 84.333,177.149 84.333 C 177.424 84.333,177.672 84.441,177.727 84.583 C 177.802 84.780,178.144 84.833,179.328 84.833 C 180.220 84.833,180.833 84.901,180.833 85.000 C 180.833 85.092,180.979 85.167,181.157 85.167 C 181.335 85.167,181.527 85.092,181.583 85.000 C 181.640 84.908,182.282 84.833,183.010 84.833 C 184.075 84.833,184.333 84.785,184.333 84.583 C 184.333 84.417,184.500 84.333,184.833 84.333 C 185.167 84.333,185.333 84.250,185.333 84.083 C 185.333 83.928,185.491 83.833,185.750 83.833 C 185.979 83.833,186.167 83.758,186.167 83.667 C 186.167 83.575,186.279 83.500,186.417 83.500 C 186.609 83.500,186.667 83.713,186.667 84.417 C 186.667 85.120,186.609 85.333,186.417 85.333 C 186.261 85.333,186.167 85.491,186.167 85.750 C 186.167 85.979,186.092 86.167,186.000 86.167 C 185.908 86.167,185.833 86.279,185.833 86.417 C 185.833 86.554,185.721 86.667,185.583 86.667 C 185.446 86.667,185.333 86.779,185.333 86.917 C 185.333 87.054,185.221 87.167,185.083 87.167 C 184.946 87.167,184.833 87.242,184.833 87.333 C 184.833 87.425,184.730 87.500,184.604 87.500 C 184.477 87.500,184.281 87.612,184.167 87.750 C 184.053 87.888,183.753 88.000,183.500 88.000 C 183.247 88.000,182.947 88.112,182.833 88.250 C 182.686 88.427,182.297 88.500,181.497 88.500 C 180.648 88.500,180.345 88.438,180.273 88.250 C 180.213 88.093,179.957 88.000,179.583 88.000 C 179.209 88.000,178.954 87.907,178.894 87.750 C 178.841 87.612,178.618 87.500,178.399 87.500 C 178.179 87.500,178.000 87.425,178.000 87.333 C 178.000 87.242,177.813 87.167,177.583 87.167 C 177.324 87.167,177.167 87.072,177.167 86.917 C 177.167 86.779,177.054 86.667,176.917 86.667 C 176.779 86.667,176.667 86.554,176.667 86.417 C 176.667 86.279,176.554 86.167,176.417 86.167 C 176.279 86.167,176.167 86.054,176.167 85.917 C 176.167 85.529,175.137 85.593,174.787 86.002 C 174.629 86.186,174.500 86.411,174.500 86.502 C 174.500 86.593,174.387 86.667,174.250 86.667 C 174.094 86.667,174.000 86.824,174.000 87.083 C 174.000 87.343,173.906 87.500,173.750 87.500 C 173.612 87.500,173.500 87.585,173.500 87.689 C 173.500 87.793,173.313 88.052,173.083 88.265 C 172.854 88.477,172.667 88.804,172.667 88.992 C 172.667 89.184,172.557 89.333,172.417 89.333 C 172.236 89.333,172.167 89.519,172.167 90.000 C 172.167 90.458,172.239 90.667,172.399 90.667 C 172.526 90.667,172.676 90.849,172.732 91.072 C 172.788 91.295,172.984 91.525,173.167 91.583 C 173.350 91.642,173.500 91.759,173.500 91.845 C 173.500 91.930,173.612 92.000,173.750 92.000 C 173.887 92.000,174.000 92.112,174.000 92.250 C 174.000 92.403,174.155 92.500,174.399 92.500 C 174.618 92.500,174.841 92.612,174.894 92.750 C 174.946 92.888,175.179 93.000,175.411 93.000 C 175.643 93.000,175.833 93.075,175.833 93.167 C 175.833 93.258,176.013 93.333,176.232 93.333 C 176.452 93.333,176.674 93.446,176.727 93.583 C 176.790 93.747,177.049 93.833,177.474 93.833 C 177.850 93.833,178.214 93.939,178.333 94.083 C 178.506 94.291,179.139 94.333,182.092 94.333 C 185.026 94.333,185.686 94.290,185.893 94.083 C 186.033 93.943,186.440 93.833,186.821 93.833 C 187.313 93.833,187.500 93.765,187.500 93.583 C 187.500 93.421,187.663 93.333,187.967 93.333 C 188.559 93.333,189.330 92.980,189.332 92.708 C 189.333 92.594,189.510 92.500,189.727 92.500 C 189.952 92.500,190.254 92.322,190.433 92.083 C 190.605 91.854,190.840 91.667,190.956 91.667 C 191.072 91.667,191.167 91.554,191.167 91.417 C 191.167 91.279,191.279 91.167,191.417 91.167 C 191.554 91.167,191.667 91.054,191.667 90.917 C 191.667 90.779,191.742 90.667,191.833 90.667 C 191.925 90.667,192.000 90.554,192.000 90.417 C 192.000 90.279,192.074 90.167,192.165 90.167 C 192.484 90.167,193.000 89.588,193.000 89.231 C 193.000 89.032,193.112 88.826,193.250 88.773 C 193.387 88.720,193.500 88.525,193.500 88.339 C 193.500 88.152,193.575 88.000,193.667 88.000 C 193.758 88.000,193.833 87.695,193.833 87.321 C 193.833 86.940,193.943 86.533,194.083 86.393 C 194.302 86.175,194.333 84.394,194.333 72.405 L 194.333 58.667 190.917 58.667 L 187.500 58.667 187.500 59.083 C 187.500 59.313,187.425 59.500,187.333 59.500 C 187.242 59.500,187.167 59.612,187.167 59.750 C 187.167 59.887,187.054 60.000,186.917 60.000 C 186.779 60.000,186.667 59.887,186.667 59.750 C 186.667 59.612,186.554 59.500,186.417 59.500 C 186.279 59.500,186.167 59.387,186.167 59.250 C 186.167 59.094,186.009 59.000,185.750 59.000 C 185.521 59.000,185.333 58.925,185.333 58.833 C 185.333 58.742,185.041 58.667,184.684 58.667 C 184.262 58.667,184.002 58.580,183.940 58.417 C 183.860 58.208,183.383 58.167,181.083 58.167 C 178.783 58.167,178.307 58.208,178.227 58.417 M317.940 58.417 C 317.876 58.582,317.615 58.667,317.172 58.667 C 316.802 58.667,316.500 58.742,316.500 58.833 C 316.500 58.925,316.318 59.000,316.095 59.000 C 315.873 59.000,315.578 59.112,315.440 59.250 C 315.303 59.387,315.073 59.500,314.929 59.500 C 314.785 59.500,314.667 59.612,314.667 59.750 C 314.667 59.906,314.509 60.000,314.250 60.000 C 314.021 60.000,313.833 60.075,313.833 60.167 C 313.833 60.258,313.721 60.333,313.583 60.333 C 313.446 60.333,313.333 60.446,313.333 60.583 C 313.333 60.721,313.221 60.833,313.083 60.833 C 312.946 60.833,312.833 60.946,312.833 61.083 C 312.833 61.221,312.758 61.333,312.667 61.333 C 312.575 61.333,312.500 61.446,312.500 61.583 C 312.500 61.721,312.419 61.833,312.321 61.833 C 312.006 61.833,311.167 62.794,311.167 63.154 C 311.167 63.350,311.059 63.500,310.917 63.500 C 310.750 63.500,310.667 63.667,310.667 64.000 C 310.667 64.333,310.583 64.500,310.417 64.500 C 310.264 64.500,310.167 64.655,310.167 64.899 C 310.167 65.118,310.054 65.341,309.917 65.394 C 309.752 65.457,309.667 65.718,309.667 66.161 C 309.667 66.531,309.592 66.833,309.500 66.833 C 309.406 66.833,309.333 67.300,309.333 67.899 C 309.333 68.692,309.269 68.989,309.083 69.060 C 308.876 69.140,308.833 69.598,308.833 71.745 C 308.833 73.935,308.872 74.333,309.083 74.333 C 309.282 74.333,309.333 74.574,309.333 75.500 C 309.333 76.167,309.405 76.667,309.500 76.667 C 309.592 76.667,309.667 76.932,309.667 77.255 C 309.667 77.625,309.760 77.880,309.917 77.940 C 310.054 77.992,310.167 78.217,310.167 78.440 C 310.167 78.662,310.279 78.887,310.417 78.940 C 310.554 78.992,310.667 79.215,310.667 79.434 C 310.667 79.678,310.764 79.833,310.917 79.833 C 311.054 79.833,311.167 79.914,311.167 80.012 C 311.167 80.243,311.591 80.667,311.821 80.667 C 311.920 80.667,312.000 80.779,312.000 80.917 C 312.000 81.054,312.112 81.167,312.250 81.167 C 312.387 81.167,312.500 81.247,312.500 81.346 C 312.500 81.579,313.421 82.500,313.654 82.500 C 313.753 82.500,313.833 82.612,313.833 82.750 C 313.833 82.906,313.991 83.000,314.250 83.000 C 314.509 83.000,314.667 83.094,314.667 83.250 C 314.667 83.387,314.779 83.500,314.917 83.500 C 315.054 83.500,315.167 83.575,315.167 83.667 C 315.167 83.758,315.467 83.833,315.833 83.833 C 316.315 83.833,316.500 83.903,316.500 84.083 C 316.500 84.263,316.683 84.333,317.149 84.333 C 317.572 84.333,317.831 84.420,317.894 84.583 C 317.970 84.784,318.337 84.833,319.735 84.833 C 320.719 84.833,321.525 84.906,321.583 85.000 C 321.640 85.092,321.832 85.167,322.010 85.167 C 322.188 85.167,322.333 85.092,322.333 85.000 C 322.333 84.900,322.993 84.833,323.980 84.833 C 325.240 84.833,325.675 84.775,325.833 84.583 C 325.952 84.440,326.316 84.333,326.687 84.333 C 327.150 84.333,327.333 84.263,327.333 84.083 C 327.333 83.917,327.500 83.833,327.833 83.833 C 328.108 83.833,328.333 83.758,328.333 83.667 C 328.333 83.575,328.521 83.500,328.750 83.500 C 329.009 83.500,329.167 83.406,329.167 83.250 C 329.167 83.112,329.279 83.000,329.417 83.000 C 329.554 83.000,329.667 82.887,329.667 82.750 C 329.667 82.608,329.816 82.500,330.013 82.500 C 330.780 82.500,331.833 81.122,331.833 80.119 C 331.833 79.228,331.813 79.190,330.750 78.090 C 330.154 77.473,329.667 76.900,329.667 76.817 C 329.667 76.735,329.554 76.667,329.417 76.667 C 329.279 76.667,329.167 76.554,329.167 76.417 C 329.167 76.279,329.054 76.167,328.917 76.167 C 328.779 76.167,328.667 76.092,328.667 76.000 C 328.667 75.687,328.084 75.838,327.691 76.253 C 327.475 76.480,327.231 76.667,327.149 76.667 C 327.067 76.667,327.000 76.779,327.000 76.917 C 327.000 77.054,326.887 77.167,326.750 77.167 C 326.612 77.167,326.500 77.279,326.500 77.417 C 326.500 77.554,326.387 77.667,326.250 77.667 C 326.112 77.667,326.000 77.742,326.000 77.833 C 326.000 77.925,325.827 78.000,325.615 78.000 C 325.404 78.000,325.085 78.110,324.907 78.245 C 324.713 78.391,324.203 78.492,323.633 78.495 C 322.937 78.499,322.643 78.572,322.533 78.768 C 322.395 79.015,322.375 79.015,322.280 78.768 C 322.201 78.563,321.944 78.500,321.190 78.500 C 320.466 78.500,320.177 78.433,320.106 78.250 C 320.054 78.112,319.856 78.000,319.666 78.000 C 319.322 78.000,318.333 77.131,318.333 76.828 C 318.333 76.739,318.221 76.667,318.083 76.667 C 317.946 76.667,317.833 76.562,317.833 76.434 C 317.833 76.307,317.721 76.159,317.583 76.106 C 317.446 76.054,317.333 75.858,317.333 75.672 C 317.333 75.486,317.258 75.333,317.167 75.333 C 317.075 75.333,317.000 75.033,317.000 74.667 L 317.000 74.000 324.917 74.000 L 332.833 74.000 332.833 71.437 C 332.833 69.362,332.786 68.835,332.583 68.667 C 332.406 68.520,332.333 68.131,332.333 67.333 C 332.333 66.536,332.260 66.147,332.083 66.000 C 331.940 65.881,331.833 65.517,331.833 65.146 C 331.833 64.791,331.758 64.500,331.667 64.500 C 331.575 64.500,331.500 64.310,331.500 64.078 C 331.500 63.846,331.387 63.613,331.250 63.560 C 331.112 63.508,331.000 63.320,331.000 63.144 C 331.000 62.967,330.887 62.780,330.750 62.727 C 330.612 62.674,330.500 62.559,330.500 62.470 C 330.500 62.262,330.071 61.833,329.863 61.833 C 329.775 61.833,329.658 61.656,329.604 61.440 C 329.550 61.224,329.242 60.867,328.920 60.648 C 328.599 60.429,328.335 60.194,328.334 60.125 C 328.334 60.056,328.221 60.000,328.083 60.000 C 327.946 60.000,327.833 59.887,327.833 59.750 C 327.833 59.594,327.675 59.500,327.411 59.500 C 327.179 59.500,326.946 59.387,326.894 59.250 C 326.841 59.112,326.618 59.000,326.399 59.000 C 326.179 59.000,326.000 58.925,326.000 58.833 C 326.000 58.742,325.695 58.667,325.321 58.667 C 324.940 58.667,324.533 58.557,324.393 58.417 C 324.189 58.213,323.581 58.167,321.089 58.167 C 318.529 58.167,318.020 58.207,317.940 58.417 M342.333 58.417 C 342.333 58.609,342.120 58.667,341.417 58.667 C 340.912 58.667,340.500 58.742,340.500 58.833 C 340.500 58.925,340.313 59.000,340.083 59.000 C 339.824 59.000,339.667 59.094,339.667 59.250 C 339.667 59.406,339.509 59.500,339.245 59.500 C 339.013 59.500,338.780 59.612,338.727 59.750 C 338.674 59.887,338.559 60.000,338.470 60.000 C 338.254 60.000,337.833 60.432,337.833 60.655 C 337.833 60.753,337.721 60.833,337.583 60.833 C 337.446 60.833,337.333 60.946,337.333 61.083 C 337.333 61.221,337.221 61.333,337.083 61.333 C 336.946 61.333,336.833 61.414,336.833 61.512 C 336.833 61.743,336.409 62.167,336.179 62.167 C 336.080 62.167,336.000 62.392,336.000 62.667 C 336.000 63.000,335.917 63.167,335.750 63.167 C 335.574 63.167,335.500 63.344,335.500 63.762 C 335.500 64.089,335.387 64.470,335.250 64.607 C 335.065 64.792,335.000 65.245,335.000 66.350 C 335.000 67.524,335.054 67.864,335.250 67.940 C 335.413 68.002,335.500 68.262,335.500 68.690 C 335.500 69.117,335.587 69.377,335.750 69.440 C 335.887 69.492,336.000 69.715,336.000 69.934 C 336.000 70.178,336.097 70.333,336.250 70.333 C 336.387 70.333,336.500 70.414,336.500 70.512 C 336.500 70.743,336.924 71.167,337.155 71.167 C 337.253 71.167,337.333 71.279,337.333 71.417 C 337.333 71.554,337.446 71.667,337.583 71.667 C 337.721 71.667,337.833 71.779,337.833 71.917 C 337.833 72.069,337.989 72.167,338.232 72.167 C 338.452 72.167,338.674 72.279,338.727 72.417 C 338.780 72.554,339.013 72.667,339.245 72.667 C 339.477 72.667,339.667 72.742,339.667 72.833 C 339.667 72.925,339.854 73.000,340.083 73.000 C 340.343 73.000,340.500 73.094,340.500 73.250 C 340.500 73.431,340.685 73.500,341.167 73.500 C 341.648 73.500,341.833 73.569,341.833 73.750 C 341.833 73.930,342.017 74.000,342.490 74.000 C 342.851 74.000,343.193 74.075,343.250 74.167 C 343.307 74.258,343.729 74.333,344.188 74.333 C 344.709 74.333,345.118 74.428,345.274 74.583 C 345.411 74.721,345.818 74.833,346.179 74.833 C 346.649 74.833,346.833 74.904,346.833 75.083 C 346.833 75.248,346.998 75.333,347.316 75.333 C 347.590 75.333,347.839 75.441,347.894 75.583 C 347.946 75.721,348.142 75.833,348.328 75.833 C 348.514 75.833,348.667 75.908,348.667 76.000 C 348.667 76.092,348.779 76.167,348.917 76.167 C 349.109 76.167,349.167 76.380,349.167 77.083 C 349.167 77.787,349.109 78.000,348.917 78.000 C 348.779 78.000,348.667 78.112,348.667 78.250 C 348.667 78.387,348.554 78.500,348.417 78.500 C 348.279 78.500,348.167 78.612,348.167 78.750 C 348.167 78.906,348.009 79.000,347.750 79.000 C 347.521 79.000,347.333 79.075,347.333 79.167 C 347.333 79.265,346.726 79.333,345.843 79.333 C 345.024 79.333,344.307 79.258,344.250 79.167 C 344.193 79.075,343.926 79.000,343.657 79.000 C 343.387 79.000,343.167 78.928,343.167 78.839 C 343.167 78.626,342.224 77.667,342.014 77.667 C 341.924 77.667,341.828 77.273,341.800 76.792 L 341.750 75.917 337.958 75.872 L 334.167 75.827 334.167 76.396 C 334.167 76.747,334.262 77.001,334.417 77.060 C 334.597 77.130,334.667 77.412,334.667 78.078 C 334.667 78.585,334.742 79.000,334.833 79.000 C 334.925 79.000,335.000 79.188,335.000 79.417 C 335.000 79.676,335.094 79.833,335.250 79.833 C 335.406 79.833,335.500 79.991,335.500 80.250 C 335.500 80.509,335.594 80.667,335.750 80.667 C 335.887 80.667,336.000 80.779,336.000 80.917 C 336.000 81.054,336.112 81.167,336.250 81.167 C 336.387 81.167,336.500 81.279,336.500 81.417 C 336.500 81.554,336.575 81.667,336.667 81.667 C 336.758 81.667,336.833 81.779,336.833 81.917 C 336.833 82.054,336.946 82.167,337.083 82.167 C 337.221 82.167,337.333 82.242,337.333 82.333 C 337.333 82.425,337.446 82.500,337.583 82.500 C 337.721 82.500,337.833 82.612,337.833 82.750 C 337.833 82.887,337.938 83.000,338.066 83.000 C 338.193 83.000,338.341 83.112,338.394 83.250 C 338.446 83.387,338.642 83.500,338.828 83.500 C 339.014 83.500,339.167 83.575,339.167 83.667 C 339.167 83.758,339.384 83.833,339.649 83.833 C 339.924 83.833,340.172 83.941,340.227 84.083 C 340.286 84.238,340.540 84.333,340.891 84.333 C 341.204 84.333,341.553 84.446,341.667 84.583 C 341.825 84.774,342.259 84.833,343.511 84.833 C 344.422 84.833,345.193 84.907,345.250 85.000 C 345.307 85.092,345.532 85.167,345.750 85.167 C 345.968 85.167,346.193 85.092,346.250 85.000 C 346.308 84.906,347.115 84.833,348.098 84.833 C 349.496 84.833,349.863 84.784,349.940 84.583 C 350.002 84.420,350.262 84.333,350.684 84.333 C 351.150 84.333,351.333 84.263,351.333 84.083 C 351.333 83.917,351.500 83.833,351.833 83.833 C 352.108 83.833,352.333 83.758,352.333 83.667 C 352.333 83.575,352.521 83.500,352.750 83.500 C 353.009 83.500,353.167 83.406,353.167 83.250 C 353.167 83.110,353.315 83.000,353.505 83.000 C 353.691 83.000,353.887 82.887,353.940 82.750 C 353.992 82.612,354.108 82.500,354.197 82.500 C 354.482 82.500,355.313 81.557,355.426 81.105 C 355.487 80.864,355.603 80.667,355.685 80.667 C 355.766 80.667,355.833 80.563,355.833 80.437 C 355.833 80.311,355.946 80.114,356.083 80.000 C 356.225 79.883,356.333 79.519,356.333 79.164 C 356.333 78.759,356.422 78.502,356.583 78.440 C 356.780 78.364,356.833 78.023,356.833 76.839 C 356.833 75.612,356.787 75.333,356.583 75.333 C 356.394 75.333,356.333 75.130,356.333 74.500 C 356.333 74.042,356.264 73.667,356.178 73.667 C 356.093 73.667,355.855 73.329,355.649 72.917 C 355.443 72.504,355.213 72.167,355.137 72.167 C 355.062 72.167,355.000 72.054,355.000 71.917 C 355.000 71.779,354.887 71.667,354.750 71.667 C 354.613 71.667,354.500 71.592,354.500 71.500 C 354.500 71.408,354.387 71.333,354.250 71.333 C 354.113 71.333,354.000 71.221,354.000 71.083 C 354.000 70.928,353.843 70.833,353.583 70.833 C 353.324 70.833,353.167 70.739,353.167 70.583 C 353.167 70.427,353.009 70.333,352.745 70.333 C 352.513 70.333,352.280 70.221,352.227 70.083 C 352.174 69.946,351.952 69.833,351.732 69.833 C 351.513 69.833,351.333 69.758,351.333 69.667 C 351.333 69.575,351.043 69.500,350.687 69.500 C 350.316 69.500,349.952 69.394,349.833 69.250 C 349.712 69.104,349.340 68.998,348.938 68.995 C 348.560 68.992,348.104 68.879,347.926 68.745 C 347.736 68.601,347.238 68.500,346.718 68.500 C 346.231 68.500,345.833 68.425,345.833 68.333 C 345.833 68.242,345.533 68.167,345.167 68.167 C 344.685 68.167,344.500 68.097,344.500 67.917 C 344.500 67.761,344.343 67.667,344.083 67.667 C 343.824 67.667,343.667 67.572,343.667 67.417 C 343.667 67.279,343.586 67.167,343.488 67.167 C 343.248 67.167,342.949 66.839,342.733 66.340 C 342.467 65.726,342.970 64.500,343.488 64.500 C 343.586 64.500,343.667 64.387,343.667 64.250 C 343.667 64.069,343.852 64.000,344.333 64.000 C 344.815 64.000,345.000 63.931,345.000 63.750 C 345.000 63.569,345.185 63.500,345.667 63.500 C 346.148 63.500,346.333 63.569,346.333 63.750 C 346.333 63.925,346.510 64.000,346.925 64.000 C 347.341 64.000,347.630 64.123,347.902 64.417 C 348.114 64.646,348.373 64.833,348.477 64.833 C 348.582 64.833,348.667 65.058,348.667 65.333 C 348.667 65.667,348.750 65.833,348.917 65.833 C 349.097 65.833,349.167 66.019,349.167 66.500 L 349.167 67.167 352.899 67.167 C 357.023 67.167,356.833 67.220,356.833 66.064 C 356.833 65.707,356.739 65.453,356.583 65.394 C 356.408 65.326,356.333 65.053,356.333 64.477 C 356.333 63.901,356.259 63.628,356.083 63.560 C 355.946 63.508,355.833 63.285,355.833 63.066 C 355.833 62.846,355.766 62.667,355.685 62.667 C 355.603 62.667,355.489 62.479,355.432 62.250 C 355.374 62.021,355.253 61.833,355.163 61.833 C 355.074 61.833,355.000 61.721,355.000 61.583 C 355.000 61.446,354.887 61.333,354.750 61.333 C 354.613 61.333,354.500 61.221,354.500 61.083 C 354.500 60.946,354.387 60.833,354.250 60.833 C 354.113 60.833,354.000 60.748,354.000 60.643 C 354.000 60.363,353.472 60.011,353.042 60.005 C 352.822 60.002,352.667 59.897,352.667 59.750 C 352.667 59.594,352.509 59.500,352.250 59.500 C 351.986 59.500,351.833 59.406,351.833 59.243 C 351.833 59.046,351.671 58.996,351.136 59.028 C 350.708 59.053,350.414 58.991,350.373 58.868 C 350.336 58.757,350.133 58.667,349.923 58.667 C 349.713 58.667,349.447 58.554,349.333 58.417 C 349.161 58.209,348.545 58.167,345.730 58.167 C 342.822 58.167,342.333 58.203,342.333 58.417 M199.077 58.875 C 199.033 58.990,199.017 64.746,199.040 71.667 L 199.083 84.250 202.792 84.295 L 206.500 84.340 206.500 71.503 L 206.500 58.667 202.828 58.667 C 200.044 58.667,199.137 58.717,199.077 58.875 M158.667 64.667 C 158.667 64.758,158.854 64.833,159.083 64.833 C 159.343 64.833,159.500 64.928,159.500 65.083 C 159.500 65.221,159.612 65.333,159.750 65.333 C 159.887 65.333,160.000 65.446,160.000 65.583 C 160.000 65.721,160.075 65.833,160.167 65.833 C 160.258 65.833,160.333 65.986,160.333 66.172 C 160.333 66.358,160.446 66.554,160.583 66.606 C 160.763 66.675,160.833 66.956,160.833 67.601 L 160.833 68.500 156.750 68.500 C 153.371 68.500,152.667 68.460,152.667 68.268 C 152.667 68.140,152.779 67.992,152.917 67.940 C 153.074 67.880,153.167 67.625,153.167 67.255 C 153.167 66.843,153.242 66.667,153.417 66.667 C 153.554 66.667,153.667 66.554,153.667 66.417 C 153.667 66.279,153.742 66.167,153.833 66.167 C 153.925 66.167,154.000 65.979,154.000 65.750 C 154.000 65.454,154.090 65.333,154.313 65.333 C 154.485 65.333,154.719 65.221,154.833 65.083 C 154.947 64.946,155.144 64.833,155.270 64.833 C 155.397 64.833,155.500 64.758,155.500 64.667 C 155.500 64.567,156.139 64.500,157.083 64.500 C 158.028 64.500,158.667 64.567,158.667 64.667 M184.417 64.667 C 184.473 64.758,184.703 64.833,184.927 64.833 C 185.177 64.833,185.333 64.929,185.333 65.083 C 185.333 65.221,185.411 65.333,185.506 65.333 C 185.600 65.333,185.900 65.561,186.172 65.839 L 186.667 66.345 186.667 71.756 C 186.667 76.454,186.634 77.167,186.417 77.167 C 186.279 77.167,186.167 77.252,186.167 77.357 C 186.167 77.637,185.638 77.989,185.208 77.995 C 184.988 77.998,184.833 78.103,184.833 78.250 C 184.833 78.457,184.520 78.500,183.018 78.500 C 181.558 78.500,181.184 78.451,181.106 78.250 C 181.054 78.112,180.858 78.000,180.672 78.000 C 180.486 78.000,180.333 77.925,180.333 77.833 C 180.333 77.742,180.221 77.667,180.083 77.667 C 179.946 77.667,179.833 77.554,179.833 77.417 C 179.833 77.279,179.721 77.167,179.583 77.167 C 179.429 77.167,179.333 77.010,179.333 76.760 C 179.333 76.536,179.258 76.307,179.167 76.250 C 179.075 76.193,179.000 75.999,179.000 75.818 C 179.000 75.637,178.887 75.446,178.750 75.394 C 178.575 75.326,178.500 75.053,178.500 74.477 C 178.500 73.901,178.425 73.628,178.250 73.560 C 178.049 73.483,178.000 73.111,178.000 71.667 C 178.000 70.222,178.049 69.850,178.250 69.773 C 178.425 69.706,178.500 69.432,178.500 68.859 C 178.500 68.335,178.590 67.966,178.750 67.833 C 178.887 67.719,179.000 67.439,179.000 67.210 C 179.000 66.693,180.820 64.833,181.326 64.833 C 181.513 64.833,181.667 64.758,181.667 64.667 C 181.667 64.570,182.219 64.500,182.990 64.500 C 183.718 64.500,184.360 64.575,184.417 64.667 M322.833 64.667 C 322.833 64.758,322.938 64.833,323.066 64.833 C 323.193 64.833,323.341 64.946,323.394 65.083 C 323.446 65.221,323.642 65.333,323.828 65.333 C 324.074 65.333,324.167 65.442,324.167 65.732 C 324.167 65.952,324.279 66.174,324.417 66.227 C 324.554 66.280,324.667 66.513,324.667 66.745 C 324.667 67.009,324.760 67.167,324.917 67.167 C 325.097 67.167,325.167 67.352,325.167 67.833 L 325.167 68.500 321.083 68.500 L 317.000 68.500 317.000 68.083 C 317.000 67.854,317.075 67.667,317.167 67.667 C 317.258 67.667,317.333 67.522,317.333 67.345 C 317.333 67.168,317.446 66.911,317.583 66.774 C 317.721 66.636,317.833 66.368,317.833 66.179 C 317.833 65.983,317.942 65.833,318.083 65.833 C 318.221 65.833,318.333 65.721,318.333 65.583 C 318.333 65.446,318.446 65.333,318.583 65.333 C 318.721 65.333,318.833 65.221,318.833 65.083 C 318.833 64.928,318.991 64.833,319.250 64.833 C 319.479 64.833,319.667 64.758,319.667 64.667 C 319.667 64.567,320.306 64.500,321.250 64.500 C 322.194 64.500,322.833 64.567,322.833 64.667 M255.500 70.083 C 255.500 70.239,255.657 70.333,255.917 70.333 C 256.176 70.333,256.333 70.428,256.333 70.583 C 256.333 70.721,256.414 70.833,256.512 70.833 C 256.743 70.833,257.167 71.257,257.167 71.488 C 257.167 71.586,257.279 71.667,257.417 71.667 C 257.596 71.667,257.667 71.851,257.667 72.321 C 257.667 72.682,257.779 73.089,257.917 73.226 C 258.055 73.364,258.167 73.772,258.167 74.137 C 258.167 74.571,258.081 74.831,257.917 74.894 C 257.779 74.946,257.667 75.179,257.667 75.411 C 257.667 75.643,257.600 75.833,257.518 75.833 C 257.436 75.833,257.322 76.021,257.265 76.250 C 257.207 76.479,257.087 76.667,256.997 76.667 C 256.907 76.667,256.833 76.779,256.833 76.917 C 256.833 77.069,256.678 77.167,256.434 77.167 C 256.215 77.167,255.992 77.279,255.940 77.417 C 255.887 77.554,255.654 77.667,255.422 77.667 C 255.190 77.667,255.000 77.742,255.000 77.833 C 255.000 77.939,253.667 78.000,251.333 78.000 L 247.667 78.000 247.667 73.917 L 247.667 69.833 251.583 69.833 C 254.954 69.833,255.500 69.868,255.500 70.083 M170.833 73.083 C 170.833 73.221,170.758 73.333,170.667 73.333 C 170.575 73.333,170.500 73.221,170.500 73.083 C 170.500 72.946,170.575 72.833,170.667 72.833 C 170.758 72.833,170.833 72.946,170.833 73.083 M89.116 80.607 C 88.960 80.762,89.148 81.000,89.427 81.000 C 89.559 81.000,89.667 80.887,89.667 80.750 C 89.667 80.499,89.315 80.407,89.116 80.607 M89.276 81.665 C 89.135 81.948,89.093 82.205,89.180 82.258 C 89.264 82.310,89.333 82.234,89.333 82.088 C 89.333 81.942,89.446 81.780,89.583 81.727 C 89.721 81.674,89.833 81.527,89.833 81.399 C 89.833 81.002,89.536 81.144,89.276 81.665 M101.500 82.383 C 101.500 82.594,101.590 82.857,101.700 82.967 C 101.856 83.122,101.856 83.167,101.700 83.167 C 101.574 83.167,101.500 83.444,101.500 83.917 C 101.500 84.766,101.537 84.797,102.000 84.333 C 102.359 83.975,102.436 83.667,102.167 83.667 C 102.075 83.667,102.000 83.292,102.000 82.833 C 102.000 82.204,101.939 82.000,101.750 82.000 C 101.600 82.000,101.500 82.154,101.500 82.383 M88.762 82.762 C 88.618 82.906,88.500 83.235,88.500 83.494 C 88.500 83.758,88.390 84.006,88.250 84.060 C 88.112 84.113,88.000 84.281,88.000 84.434 C 88.000 84.587,87.813 84.886,87.583 85.098 C 87.354 85.310,87.167 85.563,87.167 85.659 C 87.167 85.755,87.062 85.833,86.934 85.833 C 86.807 85.833,86.659 85.946,86.606 86.083 C 86.554 86.221,86.409 86.333,86.284 86.333 C 86.012 86.333,85.333 87.025,85.333 87.302 C 85.333 87.411,85.202 87.502,85.042 87.506 C 84.429 87.517,83.647 88.500,84.250 88.500 C 84.388 88.500,84.481 88.406,84.458 88.292 C 84.435 88.174,84.617 88.060,84.875 88.031 C 85.137 88.000,85.333 87.876,85.333 87.739 C 85.333 87.608,85.414 87.500,85.512 87.500 C 85.743 87.500,86.167 87.076,86.167 86.845 C 86.167 86.747,86.279 86.667,86.417 86.667 C 86.554 86.667,86.667 86.554,86.667 86.417 C 86.667 86.279,86.766 86.167,86.889 86.167 C 87.011 86.167,87.211 85.979,87.333 85.750 C 87.456 85.521,87.656 85.333,87.778 85.333 C 87.900 85.333,88.000 85.221,88.000 85.083 C 88.000 84.946,88.112 84.833,88.250 84.833 C 88.406 84.833,88.500 84.676,88.500 84.417 C 88.500 84.157,88.594 84.000,88.750 84.000 C 88.918 84.000,89.000 83.832,89.000 83.490 C 89.000 83.193,89.069 83.023,89.167 83.083 C 89.258 83.140,89.333 83.032,89.333 82.843 C 89.333 82.434,89.121 82.403,88.762 82.762 M101.292 85.429 C 101.223 85.499,101.167 85.708,101.167 85.894 C 101.167 86.140,101.217 86.183,101.349 86.051 C 101.449 85.951,101.505 85.742,101.474 85.586 C 101.442 85.431,101.360 85.360,101.292 85.429 M100.795 86.667 C 100.680 86.850,100.492 87.000,100.377 87.000 C 100.243 87.000,100.167 87.242,100.167 87.667 C 100.167 88.033,100.092 88.333,100.000 88.333 C 99.731 88.333,99.809 89.001,100.091 89.109 C 100.461 89.251,100.602 89.035,100.376 88.673 C 100.222 88.427,100.232 88.320,100.424 88.160 C 100.558 88.050,100.667 87.743,100.667 87.480 C 100.667 87.164,100.752 87.000,100.917 87.000 C 101.056 87.000,101.167 86.852,101.167 86.667 C 101.167 86.483,101.130 86.333,101.085 86.333 C 101.040 86.333,100.909 86.483,100.795 86.667 M99.667 89.417 C 99.667 89.554,99.592 89.667,99.500 89.667 C 99.408 89.667,99.333 89.779,99.333 89.917 C 99.333 90.054,99.221 90.167,99.083 90.167 C 98.946 90.167,98.833 90.279,98.833 90.417 C 98.833 90.554,98.721 90.667,98.583 90.667 C 98.446 90.667,98.333 90.785,98.333 90.929 C 98.333 91.073,98.446 91.303,98.583 91.440 C 98.806 91.663,98.833 91.634,98.833 91.179 C 98.833 90.835,98.915 90.667,99.083 90.667 C 99.221 90.667,99.333 90.586,99.333 90.488 C 99.333 90.390,99.446 90.197,99.583 90.060 C 99.815 89.828,99.939 89.167,99.750 89.167 C 99.704 89.167,99.667 89.279,99.667 89.417 M98.000 91.823 C 98.000 91.921,97.888 92.000,97.750 92.000 C 97.612 92.000,97.500 92.078,97.500 92.173 C 97.500 92.285,97.631 92.277,97.875 92.150 C 98.378 91.889,98.382 91.883,98.178 91.757 C 98.080 91.696,98.000 91.726,98.000 91.823 M97.335 92.957 C 96.741 93.190,95.878 94.333,96.296 94.333 C 96.470 94.333,97.000 93.705,97.000 93.498 C 97.000 93.407,97.141 93.333,97.313 93.333 C 97.485 93.333,97.719 93.221,97.833 93.083 C 98.058 92.812,97.843 92.758,97.335 92.957 M95.667 94.593 C 95.667 94.736,95.605 94.815,95.530 94.768 C 95.377 94.674,94.833 95.246,94.833 95.502 C 94.833 95.593,94.721 95.667,94.583 95.667 C 94.446 95.667,94.333 95.779,94.333 95.917 C 94.333 96.054,94.248 96.167,94.144 96.167 C 94.040 96.167,93.781 96.354,93.569 96.583 C 93.356 96.813,93.029 97.000,92.841 97.000 C 92.649 97.000,92.500 97.109,92.500 97.250 C 92.500 97.388,92.388 97.500,92.250 97.500 C 92.112 97.500,92.000 97.585,92.000 97.690 C 92.000 98.028,91.433 98.323,90.771 98.328 C 90.217 98.333,90.155 98.369,90.333 98.583 C 90.594 98.897,91.273 98.909,91.450 98.602 C 91.523 98.475,91.733 98.343,91.917 98.309 C 92.100 98.276,92.324 98.080,92.415 97.874 C 92.505 97.668,92.714 97.500,92.878 97.500 C 93.043 97.500,93.220 97.388,93.273 97.250 C 93.326 97.112,93.473 97.000,93.601 97.000 C 93.729 97.000,93.833 96.888,93.833 96.750 C 93.833 96.612,93.946 96.500,94.083 96.500 C 94.221 96.500,94.333 96.425,94.333 96.333 C 94.333 96.242,94.446 96.167,94.583 96.167 C 94.721 96.167,94.833 96.062,94.833 95.934 C 94.833 95.696,95.178 95.500,95.597 95.500 C 96.033 95.500,96.548 94.842,96.324 94.572 C 96.061 94.255,95.667 94.268,95.667 94.593 M89.778 99.069 C 89.723 99.215,89.487 99.333,89.255 99.333 C 89.023 99.333,88.833 99.408,88.833 99.500 C 88.833 99.592,88.533 99.667,88.167 99.667 C 87.685 99.667,87.500 99.736,87.500 99.917 C 87.500 100.097,87.315 100.167,86.833 100.167 C 86.352 100.167,86.167 100.236,86.167 100.417 C 86.167 100.556,86.315 100.667,86.500 100.667 C 86.683 100.667,86.833 100.592,86.833 100.500 C 86.833 100.270,87.291 100.289,87.369 100.522 C 87.410 100.648,87.519 100.624,87.692 100.451 C 87.835 100.308,88.225 100.139,88.559 100.077 C 88.893 100.014,89.167 99.906,89.167 99.836 C 89.167 99.766,89.387 99.602,89.656 99.471 C 89.986 99.312,90.102 99.165,90.012 99.020 C 89.909 98.853,89.857 98.864,89.778 99.069 M83.940 100.917 C 83.868 101.104,83.967 101.167,84.341 101.167 C 84.614 101.167,84.977 101.254,85.147 101.360 C 85.515 101.590,86.000 101.442,86.000 101.100 C 86.000 100.753,85.371 100.595,85.048 100.861 C 84.837 101.036,84.764 101.039,84.709 100.875 C 84.611 100.584,84.056 100.614,83.940 100.917 M80.917 101.279 C 81.635 101.438,81.712 101.494,81.523 101.723 C 81.379 101.896,81.440 101.927,81.822 101.871 C 82.830 101.723,82.589 101.164,81.526 101.186 C 81.008 101.197,80.733 101.239,80.917 101.279 M76.467 102.200 C 76.622 102.356,76.711 102.356,76.867 102.200 C 77.022 102.044,76.978 102.000,76.667 102.000 C 76.356 102.000,76.311 102.044,76.467 102.200 " stroke="none" fill="#040404" fill-rule="evenodd"></path><path id="path2" d="M96.167 79.163 L 101.417 79.250 101.470 79.625 C 101.542 80.131,102.000 80.113,102.000 79.604 C 102.000 79.029,101.634 78.995,95.938 79.038 L 90.917 79.076 96.167 79.163 M90.333 80.255 C 90.333 81.069,90.270 81.368,90.083 81.440 C 89.929 81.499,89.833 81.752,89.833 82.101 C 89.833 82.412,89.758 82.667,89.667 82.667 C 89.575 82.667,89.502 82.798,89.505 82.958 C 89.514 83.418,90.000 82.704,90.000 82.232 C 90.000 82.028,90.089 81.831,90.198 81.795 C 90.317 81.756,90.426 81.261,90.469 80.573 C 90.509 79.937,90.626 79.362,90.729 79.294 C 90.847 79.217,90.809 79.171,90.625 79.169 C 90.377 79.167,90.333 79.329,90.333 80.255 M101.304 81.583 C 101.110 83.602,100.747 85.228,100.195 86.553 C 100.088 86.811,100.000 87.092,100.000 87.178 C 100.000 87.263,99.925 87.333,99.833 87.333 C 99.742 87.333,99.667 87.408,99.667 87.500 C 99.667 87.592,99.724 87.667,99.794 87.667 C 99.966 87.667,100.670 86.157,100.668 85.792 C 100.667 85.631,100.736 85.500,100.821 85.500 C 100.906 85.500,101.028 85.069,101.092 84.542 C 101.156 84.015,101.277 83.497,101.361 83.391 C 101.445 83.285,101.492 82.573,101.465 81.808 L 101.417 80.417 101.304 81.583 M89.208 83.620 C 89.094 83.661,89.000 83.838,89.000 84.014 C 89.000 84.190,88.931 84.333,88.847 84.333 C 88.762 84.333,88.644 84.558,88.583 84.833 C 88.523 85.108,88.407 85.333,88.326 85.333 C 88.118 85.333,87.167 86.286,87.167 86.494 C 87.167 86.589,87.088 86.667,86.992 86.667 C 86.896 86.667,86.475 87.004,86.057 87.417 C 85.638 87.829,85.367 88.167,85.454 88.167 C 85.786 88.167,88.667 85.183,89.074 84.418 C 89.527 83.565,89.538 83.502,89.208 83.620 M99.375 88.285 C 99.260 88.531,99.167 88.804,99.167 88.890 C 99.167 88.977,98.867 89.522,98.501 90.101 C 98.125 90.697,97.944 91.114,98.084 91.060 C 98.221 91.007,98.333 90.897,98.333 90.814 C 98.333 90.731,98.558 90.353,98.833 89.974 C 99.108 89.594,99.333 89.151,99.333 88.989 C 99.333 88.827,99.416 88.667,99.516 88.633 C 99.617 88.600,99.673 88.407,99.641 88.204 C 99.586 87.852,99.575 87.855,99.375 88.285 M84.917 88.333 C 84.860 88.425,84.673 88.500,84.500 88.500 C 84.161 88.500,83.899 88.787,84.076 88.965 C 84.136 89.025,84.237 88.992,84.301 88.893 C 84.364 88.793,84.585 88.659,84.792 88.595 C 84.998 88.530,85.167 88.408,85.167 88.322 C 85.167 88.119,85.046 88.124,84.917 88.333 M82.500 89.150 C 82.500 89.232,81.958 89.354,81.295 89.421 C 79.576 89.593,79.678 89.208,79.672 95.542 L 79.667 101.000 79.167 101.000 C 78.892 101.000,78.667 101.067,78.667 101.149 C 78.667 101.537,80.242 101.645,80.387 101.266 C 80.441 101.128,80.346 100.999,80.155 100.949 C 79.846 100.868,79.833 100.661,79.833 95.549 C 79.833 89.773,79.823 89.833,80.773 89.833 C 81.071 89.833,81.360 89.758,81.417 89.667 C 81.473 89.575,81.759 89.497,82.052 89.492 C 82.344 89.488,82.808 89.382,83.083 89.256 L 83.583 89.027 83.042 89.014 C 82.744 89.006,82.500 89.067,82.500 89.150 M60.595 90.016 C 60.864 90.345,61.117 90.587,61.158 90.552 C 61.199 90.518,60.980 90.248,60.670 89.953 L 60.108 89.417 60.595 90.016 M61.641 91.542 C 62.792 93.205,64.353 94.930,65.558 95.871 C 65.939 96.168,65.497 95.663,64.577 94.747 C 63.656 93.832,62.543 92.577,62.104 91.958 C 61.664 91.340,61.270 90.833,61.227 90.833 C 61.185 90.833,61.371 91.152,61.641 91.542 M97.237 91.958 C 96.979 92.302,96.689 92.638,96.592 92.706 C 96.488 92.778,96.536 92.829,96.708 92.831 C 96.869 92.832,97.000 92.755,97.000 92.659 C 97.000 92.564,97.188 92.283,97.417 92.036 C 97.792 91.632,97.942 91.333,97.770 91.333 C 97.735 91.333,97.495 91.615,97.237 91.958 M95.074 94.299 C 93.049 96.271,91.917 97.238,91.219 97.593 C 90.869 97.771,90.558 97.973,90.528 98.042 C 90.497 98.110,90.333 98.167,90.163 98.167 C 89.992 98.167,89.806 98.243,89.748 98.336 C 89.691 98.429,89.368 98.625,89.030 98.771 C 88.658 98.933,88.506 99.071,88.644 99.122 C 88.769 99.169,88.919 99.133,88.978 99.043 C 89.036 98.952,89.252 98.826,89.458 98.761 C 89.665 98.697,89.833 98.574,89.833 98.489 C 89.833 98.403,90.016 98.333,90.240 98.333 C 90.464 98.333,90.692 98.260,90.747 98.171 C 90.802 98.082,91.088 97.894,91.382 97.754 C 91.676 97.614,92.156 97.274,92.449 97.000 C 92.742 96.725,93.061 96.500,93.158 96.500 C 93.254 96.500,93.333 96.388,93.333 96.250 C 93.333 96.112,93.392 96.000,93.464 96.000 C 93.642 96.000,96.558 93.169,96.469 93.081 C 96.431 93.042,95.803 93.590,95.074 94.299 M66.428 96.518 C 66.714 96.981,71.044 99.504,71.540 99.497 C 71.655 99.495,71.111 99.176,70.330 98.789 C 69.549 98.401,68.331 97.697,67.623 97.225 C 66.914 96.753,66.376 96.435,66.428 96.518 M87.583 99.423 L 87.083 99.652 87.607 99.659 C 87.924 99.664,88.169 99.568,88.227 99.417 C 88.341 99.119,88.245 99.120,87.583 99.423 M72.311 99.757 C 72.619 99.890,72.957 99.997,73.061 99.993 C 73.165 99.990,72.998 99.877,72.689 99.743 C 72.381 99.610,72.043 99.503,71.939 99.507 C 71.835 99.510,72.002 99.623,72.311 99.757 M86.250 99.833 C 86.193 99.925,85.908 100.006,85.615 100.013 C 85.323 100.020,84.821 100.126,84.500 100.250 L 83.917 100.475 84.458 100.487 C 84.756 100.494,85.000 100.425,85.000 100.333 C 85.000 100.242,85.323 100.167,85.718 100.167 C 86.113 100.167,86.582 100.057,86.760 99.922 C 87.076 99.683,87.075 99.677,86.718 99.672 C 86.517 99.669,86.307 99.742,86.250 99.833 M75.083 100.587 C 76.173 100.890,76.635 100.880,75.667 100.575 C 75.254 100.445,74.767 100.342,74.583 100.347 C 74.400 100.352,74.625 100.460,75.083 100.587 M82.604 100.618 C 82.539 100.683,82.133 100.786,81.701 100.846 L 80.917 100.955 81.875 100.978 C 82.402 100.990,82.833 100.930,82.833 100.845 C 82.833 100.760,83.002 100.657,83.208 100.618 C 83.550 100.552,83.545 100.543,83.153 100.523 C 82.916 100.510,82.669 100.553,82.604 100.618 M76.958 100.951 C 77.165 100.991,77.502 100.991,77.708 100.951 C 77.915 100.911,77.746 100.879,77.333 100.879 C 76.921 100.879,76.752 100.911,76.958 100.951 " stroke="none" fill="#621a04" fill-rule="evenodd"></path><path id="path3" d="M90.729 79.294 C 90.626 79.362,90.509 79.937,90.469 80.573 C 90.426 81.261,90.317 81.756,90.198 81.795 C 90.089 81.831,90.000 82.012,90.000 82.197 C 90.000 82.381,89.893 82.731,89.763 82.974 C 89.632 83.218,89.354 83.792,89.145 84.250 C 88.745 85.126,85.833 88.167,85.395 88.167 C 85.269 88.167,85.167 88.240,85.167 88.330 C 85.167 88.420,84.979 88.541,84.750 88.598 C 84.521 88.656,84.333 88.770,84.333 88.851 C 84.333 88.933,84.192 89.000,84.020 89.000 C 83.848 89.000,83.438 89.112,83.109 89.250 C 82.780 89.388,82.288 89.500,82.015 89.500 C 81.743 89.500,81.473 89.575,81.417 89.667 C 81.360 89.758,81.071 89.833,80.773 89.833 C 80.476 89.833,80.143 89.923,80.033 90.033 C 79.721 90.346,79.749 100.811,80.062 100.932 C 80.389 101.057,83.941 100.486,84.719 100.183 C 84.977 100.082,85.404 100.000,85.668 100.000 C 85.931 100.000,86.187 99.935,86.236 99.856 C 86.285 99.776,86.574 99.671,86.878 99.622 C 87.491 99.522,89.605 98.568,89.756 98.323 C 89.810 98.237,89.992 98.167,90.163 98.167 C 90.333 98.167,90.497 98.110,90.528 98.042 C 90.558 97.973,90.869 97.771,91.219 97.593 C 93.362 96.502,99.167 90.081,99.167 88.802 C 99.167 88.647,99.236 88.477,99.321 88.425 C 99.405 88.372,99.524 88.105,99.584 87.831 C 99.644 87.557,99.762 87.333,99.847 87.333 C 99.931 87.333,100.000 87.263,100.000 87.178 C 100.000 87.092,100.088 86.811,100.195 86.553 C 100.880 84.907,101.701 80.108,101.423 79.375 C 101.335 79.142,91.081 79.065,90.729 79.294 M101.255 80.208 C 100.987 82.345,100.410 85.330,100.136 86.000 C 99.093 88.543,97.819 90.904,96.923 91.952 C 95.658 93.431,94.317 94.851,93.917 95.135 C 93.642 95.331,93.115 95.785,92.747 96.144 C 92.074 96.800,91.485 97.198,90.250 97.831 C 89.883 98.019,89.471 98.244,89.333 98.331 C 88.770 98.687,87.045 99.341,85.833 99.657 C 85.421 99.765,84.708 99.961,84.250 100.092 C 83.792 100.223,82.854 100.398,82.167 100.482 C 81.479 100.566,80.758 100.685,80.565 100.747 C 80.268 100.842,80.197 100.777,80.107 100.326 C 79.970 99.642,79.967 91.788,80.103 90.795 L 80.206 90.043 81.031 90.024 C 81.779 90.007,82.871 89.734,83.750 89.345 C 83.933 89.263,84.196 89.152,84.333 89.096 C 85.890 88.470,89.500 85.085,89.500 84.252 C 89.500 84.138,90.097 82.732,90.317 82.329 C 90.393 82.190,90.589 81.458,90.752 80.704 L 91.048 79.333 96.206 79.333 L 101.365 79.333 101.255 80.208 M47.408 83.348 C 47.346 83.448,47.379 83.613,47.481 83.715 C 47.617 83.851,47.667 83.803,47.667 83.533 C 47.667 83.131,47.580 83.069,47.408 83.348 M60.280 89.833 C 60.475 90.063,60.841 90.625,61.093 91.083 C 61.344 91.542,61.597 91.954,61.655 92.000 C 61.712 92.046,62.015 92.421,62.329 92.833 C 62.953 93.653,65.812 96.500,66.011 96.500 C 66.079 96.500,66.408 96.744,66.742 97.042 C 67.496 97.713,70.462 99.366,71.750 99.833 C 72.823 100.221,73.987 100.532,74.157 100.475 C 74.265 100.439,73.655 100.191,72.802 99.924 C 68.434 98.557,64.232 95.376,61.612 91.454 C 61.170 90.792,60.609 90.063,60.367 89.833 L 59.926 89.417 60.280 89.833 M75.000 100.735 C 75.321 100.867,75.846 100.972,76.167 100.968 L 76.750 100.962 76.167 100.833 C 75.846 100.762,75.321 100.657,75.000 100.600 L 74.417 100.496 75.000 100.735 M77.124 101.190 C 77.228 101.295,77.710 101.418,78.193 101.465 C 79.011 101.543,79.054 101.530,78.799 101.275 C 78.620 101.096,78.245 101.000,77.729 101.000 C 77.133 101.000,76.981 101.048,77.124 101.190 " stroke="none" fill="#892304" fill-rule="evenodd"></path><path id="path4" d="M90.698 78.975 C 90.487 79.035,92.948 79.083,96.167 79.083 C 99.386 79.083,101.846 79.035,101.635 78.975 C 101.423 78.915,98.962 78.867,96.167 78.867 C 93.371 78.867,90.910 78.915,90.698 78.975 M101.500 80.500 C 101.500 80.833,101.583 81.000,101.750 81.000 C 101.917 81.000,102.000 80.833,102.000 80.500 C 102.000 80.167,101.917 80.000,101.750 80.000 C 101.583 80.000,101.500 80.167,101.500 80.500 M89.833 81.014 C 89.833 81.652,90.226 81.594,90.303 80.945 C 90.340 80.630,90.279 80.500,90.094 80.500 C 89.914 80.500,89.833 80.659,89.833 81.014 M89.333 82.597 C 89.333 83.013,89.247 83.336,89.125 83.380 C 89.010 83.421,88.968 83.510,89.031 83.577 C 89.228 83.790,89.500 83.497,89.500 83.073 C 89.500 82.850,89.575 82.667,89.667 82.667 C 89.758 82.667,89.833 82.492,89.833 82.278 C 89.833 82.043,89.734 81.889,89.583 81.889 C 89.400 81.889,89.333 82.079,89.333 82.597 M101.312 83.417 C 101.255 83.508,101.156 84.015,101.092 84.542 C 101.028 85.069,100.906 85.500,100.821 85.500 C 100.561 85.500,100.650 85.946,100.958 86.188 C 101.219 86.393,101.227 86.387,101.034 86.140 C 100.888 85.954,100.874 85.828,100.992 85.755 C 101.088 85.696,101.167 85.433,101.167 85.171 C 101.167 84.909,101.247 84.668,101.346 84.635 C 101.446 84.601,101.501 84.284,101.471 83.913 C 101.441 83.548,101.370 83.325,101.312 83.417 M88.500 84.417 C 88.500 84.676,88.406 84.833,88.250 84.833 C 88.112 84.833,88.000 84.946,88.000 85.083 C 88.000 85.221,87.883 85.333,87.740 85.333 C 87.597 85.333,87.518 85.395,87.565 85.470 C 87.660 85.623,87.088 86.167,86.831 86.167 C 86.741 86.167,86.667 86.279,86.667 86.417 C 86.667 86.554,86.554 86.667,86.417 86.667 C 86.279 86.667,86.167 86.747,86.167 86.845 C 86.167 86.943,86.060 87.131,85.929 87.262 C 85.798 87.393,85.610 87.500,85.512 87.500 C 85.414 87.500,85.333 87.612,85.333 87.750 C 85.333 87.888,85.188 88.000,85.010 88.000 C 84.681 88.000,84.393 88.282,84.557 88.445 C 84.684 88.573,86.026 87.582,86.400 87.084 C 86.572 86.854,86.815 86.667,86.940 86.667 C 87.065 86.667,87.167 86.589,87.167 86.494 C 87.167 86.286,88.118 85.333,88.326 85.333 C 88.407 85.333,88.523 85.108,88.583 84.833 C 88.644 84.558,88.762 84.333,88.847 84.333 C 88.931 84.333,89.000 84.258,89.000 84.167 C 89.000 84.075,88.888 84.000,88.750 84.000 C 88.594 84.000,88.500 84.157,88.500 84.417 M100.372 86.667 C 100.198 86.945,100.206 87.000,100.415 87.000 C 100.556 87.000,100.667 86.853,100.667 86.667 C 100.667 86.483,100.647 86.333,100.623 86.333 C 100.600 86.333,100.487 86.483,100.372 86.667 M99.875 87.593 C 99.760 87.717,99.667 88.010,99.667 88.243 C 99.667 88.476,99.592 88.667,99.500 88.667 C 99.408 88.667,99.333 88.805,99.333 88.975 C 99.333 89.145,99.108 89.595,98.832 89.975 C 98.466 90.480,98.399 90.667,98.582 90.667 C 98.720 90.667,98.833 90.554,98.833 90.417 C 98.833 90.279,98.946 90.167,99.083 90.167 C 99.236 90.167,99.333 90.011,99.333 89.768 C 99.333 89.548,99.446 89.326,99.583 89.273 C 99.739 89.213,99.833 88.960,99.833 88.602 C 99.833 88.286,99.917 88.000,100.019 87.966 C 100.121 87.932,100.177 87.783,100.144 87.635 C 100.093 87.410,100.049 87.403,99.875 87.593 M83.667 88.644 C 83.667 88.722,83.208 88.829,82.647 88.879 C 82.087 88.930,81.547 89.053,81.447 89.153 C 81.348 89.252,80.947 89.333,80.556 89.333 C 79.495 89.333,79.500 89.305,79.500 95.419 L 79.500 100.860 78.375 100.768 C 77.635 100.707,77.392 100.725,77.667 100.821 C 77.896 100.901,78.440 100.974,78.875 100.983 L 79.667 101.000 79.672 95.542 C 79.678 89.208,79.576 89.593,81.295 89.421 C 81.958 89.354,82.500 89.232,82.500 89.150 C 82.500 89.067,82.829 89.000,83.232 89.000 C 83.729 89.000,83.995 88.920,84.060 88.750 C 84.119 88.598,84.061 88.500,83.911 88.500 C 83.777 88.500,83.667 88.565,83.667 88.644 M60.719 89.967 C 60.965 90.225,61.167 90.491,61.167 90.560 C 61.167 91.134,65.398 95.836,66.384 96.358 C 66.838 96.598,65.989 95.693,65.224 95.121 C 64.453 94.545,62.744 92.584,61.872 91.277 C 61.069 90.071,60.591 89.500,60.385 89.500 C 60.323 89.500,60.473 89.710,60.719 89.967 M97.845 91.375 C 97.765 91.581,97.541 91.916,97.349 92.118 C 97.157 92.320,97.000 92.564,97.000 92.660 C 97.000 92.755,96.888 92.833,96.750 92.833 C 96.612 92.833,96.500 92.914,96.500 93.012 C 96.500 93.212,93.667 96.000,93.464 96.000 C 93.392 96.000,93.333 96.112,93.333 96.250 C 93.333 96.624,93.406 96.579,94.409 95.583 C 94.918 95.079,95.408 94.667,95.500 94.667 C 95.592 94.667,95.667 94.595,95.667 94.508 C 95.667 94.157,97.111 92.833,97.508 92.820 C 97.733 92.813,97.823 92.769,97.708 92.723 C 97.229 92.530,97.836 91.500,98.429 91.500 C 98.661 91.500,98.663 91.472,98.440 91.250 C 98.105 90.915,98.018 90.933,97.845 91.375 M92.417 97.010 C 92.142 97.280,91.676 97.615,91.382 97.755 C 90.764 98.049,90.530 98.333,90.907 98.333 C 91.050 98.333,91.167 98.266,91.167 98.185 C 91.167 98.103,91.354 97.989,91.583 97.932 C 91.813 97.874,92.000 97.753,92.000 97.663 C 92.000 97.574,92.112 97.500,92.250 97.500 C 92.388 97.500,92.500 97.396,92.500 97.269 C 92.500 97.143,92.650 97.000,92.833 96.952 C 93.017 96.904,93.167 96.783,93.167 96.682 C 93.167 96.391,92.952 96.484,92.417 97.010 M67.917 97.426 C 69.223 98.267,71.039 99.182,72.160 99.565 C 72.935 99.829,73.340 99.795,72.647 99.524 C 70.483 98.678,69.718 98.316,68.475 97.552 C 66.723 96.476,66.288 96.378,67.917 97.426 M89.833 98.497 C 89.833 98.587,89.646 98.707,89.417 98.765 C 89.188 98.822,89.000 98.936,89.000 99.018 C 89.000 99.100,88.854 99.167,88.677 99.167 C 88.330 99.167,88.063 99.452,88.242 99.631 C 88.302 99.691,88.407 99.651,88.474 99.542 C 88.541 99.433,88.829 99.326,89.113 99.305 C 89.458 99.278,89.602 99.193,89.547 99.049 C 89.502 98.931,89.579 98.833,89.718 98.833 C 89.858 98.833,90.010 98.927,90.056 99.042 C 90.103 99.156,90.146 99.044,90.154 98.792 C 90.161 98.540,90.092 98.333,90.000 98.333 C 89.908 98.333,89.833 98.407,89.833 98.497 M86.750 99.934 C 86.429 100.181,86.435 100.189,86.904 100.137 C 87.172 100.107,87.422 99.990,87.459 99.875 C 87.553 99.589,87.155 99.622,86.750 99.934 M73.750 100.088 C 74.618 100.401,75.082 100.392,74.356 100.077 C 74.047 99.943,73.635 99.837,73.439 99.841 C 73.209 99.845,73.319 99.933,73.750 100.088 M85.000 100.310 C 85.000 100.389,84.539 100.495,83.977 100.546 C 83.066 100.629,82.386 100.983,82.840 101.139 C 82.929 101.170,82.953 101.282,82.893 101.389 C 82.823 101.514,82.865 101.509,83.009 101.375 C 83.132 101.260,83.366 101.167,83.528 101.167 C 83.717 101.167,83.790 101.080,83.730 100.925 C 83.656 100.733,83.850 100.673,84.680 100.633 C 85.707 100.584,86.378 100.167,85.431 100.167 C 85.194 100.167,85.000 100.231,85.000 100.310 M75.750 100.588 C 76.117 100.709,76.604 100.806,76.833 100.803 C 77.157 100.799,77.101 100.749,76.583 100.579 C 76.217 100.458,75.729 100.361,75.500 100.364 C 75.176 100.367,75.232 100.417,75.750 100.588 " stroke="none" fill="#2c1404" fill-rule="evenodd"></path><path id="path5" d="M91.000 78.639 C 90.351 78.855,91.489 78.917,96.167 78.917 C 99.100 78.917,101.500 78.860,101.500 78.792 C 101.500 78.723,101.331 78.663,101.125 78.659 C 98.869 78.612,91.127 78.596,91.000 78.639 M89.940 79.949 C 89.741 80.148,89.832 80.500,90.083 80.500 C 90.221 80.500,90.333 80.392,90.333 80.260 C 90.333 79.981,90.095 79.793,89.940 79.949 M101.500 81.500 C 101.500 81.833,101.583 82.000,101.750 82.000 C 101.917 82.000,102.000 81.833,102.000 81.500 C 102.000 81.167,101.917 81.000,101.750 81.000 C 101.583 81.000,101.500 81.167,101.500 81.500 M100.855 85.890 C 100.736 86.034,100.667 86.286,100.702 86.450 C 100.757 86.713,100.790 86.703,100.976 86.366 C 101.241 85.886,101.151 85.534,100.855 85.890 M60.313 89.451 C 60.624 89.574,61.100 90.064,61.334 90.502 C 61.605 91.007,61.708 90.821,61.457 90.281 C 61.343 90.036,61.164 89.835,61.059 89.835 C 60.955 89.834,60.826 89.721,60.773 89.583 C 60.720 89.446,60.544 89.339,60.380 89.346 C 60.173 89.356,60.153 89.387,60.313 89.451 M62.271 91.875 C 62.554 92.350,63.394 93.328,63.461 93.261 C 63.501 93.221,63.338 92.977,63.098 92.719 C 62.859 92.461,62.621 92.119,62.570 91.958 C 62.519 91.798,62.403 91.667,62.312 91.667 C 62.221 91.667,62.203 91.760,62.271 91.875 M96.744 93.174 C 96.473 93.472,96.470 93.501,96.718 93.406 C 96.873 93.346,97.000 93.236,97.000 93.161 C 97.000 93.086,97.131 92.990,97.292 92.948 C 97.529 92.886,97.534 92.868,97.317 92.853 C 97.171 92.842,96.913 92.987,96.744 93.174 M64.197 94.154 C 64.499 94.514,64.776 94.780,64.812 94.744 C 64.898 94.657,63.954 93.527,63.782 93.512 C 63.708 93.505,63.895 93.794,64.197 94.154 M94.182 95.762 C 93.870 96.078,93.664 96.386,93.724 96.446 C 93.784 96.506,93.833 96.468,93.833 96.361 C 93.833 96.254,93.946 96.167,94.083 96.167 C 94.221 96.167,94.333 96.054,94.333 95.917 C 94.333 95.779,94.446 95.667,94.583 95.667 C 94.721 95.667,94.833 95.554,94.833 95.417 C 94.833 95.095,94.848 95.087,94.182 95.762 M65.921 95.655 C 66.451 96.308,66.856 96.699,66.927 96.628 C 66.964 96.592,66.678 96.267,66.293 95.906 C 65.907 95.545,65.740 95.432,65.921 95.655 M68.083 97.318 C 68.633 97.673,69.121 97.924,69.167 97.875 C 69.212 97.827,69.161 97.756,69.052 97.717 C 68.944 97.678,68.551 97.426,68.179 97.156 C 67.807 96.887,67.408 96.668,67.293 96.670 C 67.178 96.672,67.533 96.964,68.083 97.318 M91.458 97.948 C 91.298 97.990,91.167 98.094,91.167 98.179 C 91.167 98.397,91.364 98.362,91.740 98.078 C 92.064 97.833,92.004 97.806,91.458 97.948 M71.147 98.937 C 71.640 99.162,72.081 99.308,72.126 99.262 C 72.172 99.217,71.994 99.093,71.730 98.988 C 71.466 98.883,71.120 98.731,70.961 98.649 C 70.801 98.567,70.576 98.506,70.461 98.514 C 70.345 98.521,70.653 98.711,71.147 98.937 M72.760 99.578 C 72.938 99.713,73.196 99.823,73.333 99.823 C 73.522 99.823,73.504 99.763,73.260 99.578 C 73.082 99.443,72.824 99.333,72.686 99.333 C 72.497 99.333,72.515 99.393,72.760 99.578 M74.209 100.014 C 74.371 100.108,74.922 100.253,75.434 100.336 C 75.946 100.420,76.508 100.533,76.683 100.588 C 76.857 100.644,77.000 100.615,77.000 100.524 C 77.000 100.434,76.511 100.308,75.914 100.244 C 75.317 100.180,74.788 100.061,74.738 99.980 C 74.688 99.899,74.483 99.836,74.282 99.838 C 73.953 99.843,73.946 99.860,74.209 100.014 M85.773 100.417 C 85.715 100.569,85.773 100.667,85.922 100.667 C 86.057 100.667,86.167 100.554,86.167 100.417 C 86.167 100.279,86.100 100.167,86.018 100.167 C 85.936 100.167,85.826 100.279,85.773 100.417 M78.708 100.782 C 78.869 100.823,79.131 100.823,79.292 100.782 C 79.452 100.740,79.321 100.705,79.000 100.705 C 78.679 100.705,78.548 100.740,78.708 100.782 M81.546 101.123 C 82.098 101.158,82.467 101.251,82.411 101.342 C 82.358 101.429,82.426 101.500,82.564 101.500 C 82.924 101.500,83.045 101.220,82.735 101.101 C 82.591 101.045,82.048 101.014,81.528 101.032 L 80.583 101.063 81.546 101.123 " stroke="none" fill="#0c0604" fill-rule="evenodd"></path><path id="path6" d="" stroke="none" fill="#2c0804" fill-rule="evenodd"></path><path id="path7" d="" stroke="none" fill="#040c04" fill-rule="evenodd"></path></g></svg>